<?xml version="1.0" encoding="UTF-8"?>
<svg width="416px" height="84px" viewBox="0 0 416 84" version="1.1" xmlns="http://www.w3.org/2000/svg" xmlns:xlink="http://www.w3.org/1999/xlink">
    <!-- Generator: Sketch 50 (54983) - http://www.bohemiancoding.com/sketch -->
    <title>Brand</title>
    <desc>Created with Sketch.</desc>
    <defs></defs>
    <g id="Symbols" stroke="none" stroke-width="1" fill="none" fill-rule="evenodd">
        <g id="Brand" transform="translate(0.000000, 1.000000)">
            <g transform="translate(0.000000, -1.000000)">
                <path d="M40.2567123,9.779 L40.2567123,46.6235 L45.6246575,46.6235 L45.6246575,1.144 L40.1876712,1.144 L22.8583562,25.9655 L5.52328767,1.144 L0.0863013699,1.144 L0.0863013699,46.6235 L5.32191781,46.6235 L5.32191781,9.845 L22.6512329,34.144 L22.9273973,34.144 L40.2567123,9.779 Z M81.7158904,0.814 L76.6873973,0.814 L55.0084932,46.6235 L60.5087671,46.6235 L66.1528767,34.606 L92.0490411,34.606 L97.6183562,46.6235 L103.400548,46.6235 L81.7158904,0.814 Z M89.9375342,29.9915 L68.2586301,29.9915 L79.1326027,6.7925 L89.9375342,29.9915 Z M152.126301,46.6235 L137.518356,28.039 C139.370959,27.731 141.096986,27.2195 142.679178,26.477 C144.267123,25.7455 145.636438,24.827 146.792877,23.716 C147.949315,22.6105 148.846849,21.318 149.479726,19.822 C150.112603,18.3205 150.429041,16.6265 150.429041,14.718 C150.429041,12.6885 150.020548,10.835 149.203562,9.1685 C148.392329,7.491 147.23589,6.072 145.74,4.8785 C144.24411,3.685 142.443288,2.761 140.337534,2.112 C138.231781,1.4685 135.86137,1.144 133.232055,1.144 L112.772877,1.144 L112.772877,46.6235 L118.146575,46.6235 L118.146575,28.952 L131.736164,28.952 L145.53863,46.6235 L152.126301,46.6235 Z M144.992055,14.9105 C144.992055,16.39 144.687123,17.71 144.071507,18.8815 C143.461644,20.0475 142.610137,21.0375 141.528493,21.835 C140.441096,22.638 139.146575,23.254 137.650685,23.6885 C136.154795,24.123 134.526575,24.332 132.754521,24.332 L118.146575,24.332 L118.146575,5.8795 L132.829315,5.8795 C136.678356,5.8795 139.670137,6.6715 141.798904,8.2555 C143.927671,9.8395 144.992055,12.0505 144.992055,14.9105 Z M181.152329,21.021 L201.542466,1.144 L194.609589,1.144 L167.286575,28.303 L167.286575,1.144 L161.912877,1.144 L161.912877,46.6235 L167.286575,46.6235 L167.286575,34.4025 L177.418356,24.6015 L195.696986,46.6235 L202.42274,46.6235 L181.152329,21.021 Z M245.176438,1.144 L210.782466,1.144 L210.782466,46.6235 L245.51589,46.6235 L245.51589,41.9485 L216.156164,41.9485 L216.156164,26.0205 L242.115616,26.0205 L242.115616,21.3455 L216.156164,21.3455 L216.156164,5.819 L245.176438,5.819 L245.176438,1.144 Z M274.334795,5.8795 L290.306301,5.8795 L290.306301,1.144 L252.932055,1.144 L252.932055,5.8795 L268.897808,5.8795 L268.897808,46.6235 L274.334795,46.6235 L274.334795,5.8795 Z M300.840822,46.6235 L306.214521,46.6235 L306.214521,1.144 L300.840822,1.144 L300.840822,46.6235 Z M355.147397,37.5925 L325.172055,1.144 L320.143562,1.144 L320.143562,46.6235 L325.379178,46.6235 L325.379178,9.3225 L356.096712,46.6235 L360.37726,46.6235 L360.37726,1.144 L355.147397,1.144 L355.147397,37.5925 Z M415.023288,40.4525 L415.023288,22.3245 L395.381096,22.3245 L395.381096,26.939 L409.856712,26.939 L409.856712,38.2415 C408.228493,39.501 406.209041,40.568 403.809863,41.459 C401.404932,42.3445 398.850411,42.7845 396.129041,42.7845 C393.229315,42.7845 390.623014,42.3115 388.310137,41.36 C386.003014,40.4085 384.029589,39.083 382.40137,37.389 C380.767397,35.706 379.513151,33.6985 378.627123,31.3885 C377.746849,29.073 377.303836,26.5485 377.303836,23.815 C377.303836,21.263 377.758356,18.843 378.661644,16.577 C379.570685,14.3 380.813425,12.3145 382.40137,10.6315 C383.983562,8.9375 385.887945,7.59 388.108767,6.6 C390.329589,5.6045 392.751781,5.104 395.381096,5.104 C397.055342,5.104 398.585753,5.236 399.972329,5.4945 C401.353151,5.753 402.618904,6.1105 403.775342,6.5615 C404.931781,7.018 406.007671,7.557 407.003014,8.1895 C407.998356,8.822 408.953425,9.5205 409.856712,10.3015 L413.326027,6.4075 C412.146575,5.4505 410.932603,4.5925 409.689863,3.8335 C408.44137,3.08 407.106575,2.4365 405.679726,1.9195 C404.252877,1.397 402.710959,1.012 401.059726,0.7535 C399.40274,0.4895 397.578904,0.3575 395.582466,0.3575 C392.003836,0.3575 388.753151,1.001 385.830411,2.2825 C382.907671,3.5585 380.404932,5.28 378.322192,7.447 C376.239452,9.614 374.616986,12.122 373.466301,14.982 C372.315616,17.842 371.728767,20.8285 371.728767,23.947 C371.728767,27.192 372.286849,30.2445 373.39726,33.11 C374.507671,35.97 376.112877,38.456 378.21863,40.579 C380.330137,42.702 382.867397,44.363 385.830411,45.5785 C388.799178,46.794 392.164932,47.399 395.927671,47.399 C399.960822,47.399 403.596986,46.717 406.836164,45.353 C410.075342,43.989 412.802466,42.3555 415.023288,40.4525 Z" id="Fill-4" fill="#7BC3A8"></path>
                <path d="M21.8112329,79.332 L20.0161644,77.649 C18.8712329,78.705 17.7032877,79.5245 16.5065753,80.102 C15.3156164,80.685 13.8945205,80.9765 12.2375342,80.9765 C10.9084932,80.9765 9.67726027,80.7345 8.53808219,80.2395 C7.40465753,79.739 6.41506849,79.068 5.58082192,78.2155 C4.74082192,77.352 4.09068493,76.351 3.61890411,75.185 C3.14712329,74.0245 2.91123288,72.7705 2.91123288,71.4285 C2.91123288,70.092 3.14712329,68.8545 3.61890411,67.6995 C4.09068493,66.55 4.74082192,65.538 5.58082192,64.691 C6.41506849,63.8275 7.40465753,63.162 8.53808219,62.6835 C9.67726027,62.1995 10.9084932,61.9575 12.2375342,61.9575 C13.8945205,61.9575 15.309863,62.249 16.4893151,62.8485 C17.6745205,63.4315 18.7791781,64.196 19.8090411,65.12 L21.6731507,63.2005 C21.0747945,62.6615 20.4534247,62.161 19.8090411,61.7155 C19.170411,61.2645 18.4684932,60.874 17.7147945,60.5605 C16.9553425,60.236 16.1326027,59.9885 15.2523288,59.8235 C14.3663014,59.6475 13.3767123,59.554 12.2720548,59.554 C10.5057534,59.554 8.87753425,59.8675 7.38739726,60.489 C5.89726027,61.116 4.60849315,61.974 3.53260274,63.063 C2.4509589,64.141 1.6109589,65.417 1.00109589,66.858 C0.391232877,68.31 0.0863013699,69.85 0.0863013699,71.4945 C0.0863013699,73.172 0.391232877,74.723 1.00109589,76.175 C1.6109589,77.616 2.4509589,78.8755 3.53260274,79.937 C4.60849315,81.004 5.88575342,81.8455 7.35287671,82.4505 C8.82,83.072 10.4252055,83.3745 12.1684932,83.3745 C13.2731507,83.3745 14.2684932,83.281 15.1660274,83.0775 C16.0578082,82.8795 16.8978082,82.61 17.680274,82.258 C18.4569863,81.9115 19.1876712,81.4825 19.8608219,80.993 C20.539726,80.5035 21.189863,79.9425 21.8112329,79.332 Z M70.0824658,71.4285 C70.0824658,69.828 69.7890411,68.3155 69.2021918,66.8745 C68.6210959,65.439 67.7868493,64.1795 66.7109589,63.096 C65.6293151,62.0015 64.3405479,61.1435 62.8331507,60.511 C61.3315068,59.873 59.6630137,59.554 57.8276712,59.554 C55.9923288,59.554 54.3180822,59.884 52.8049315,60.5275 C51.2860274,61.171 49.9915068,62.04 48.909863,63.1455 C47.8339726,64.24 46.9939726,65.505 46.4013699,66.946 C45.8030137,68.3815 45.5038356,69.8995 45.5038356,71.4945 C45.5038356,73.095 45.7972603,74.6185 46.3841096,76.054 C46.9652055,77.495 47.7994521,78.749 48.8810959,79.8435 C49.9569863,80.927 51.2457534,81.785 52.7531507,82.4175 C54.2547945,83.061 55.9232877,83.3745 57.7586301,83.3745 C59.5939726,83.3745 61.2682192,83.0555 62.7813699,82.4065 C64.300274,81.7575 65.5947945,80.8885 66.6706849,79.794 C67.7523288,78.694 68.5923288,77.4235 69.1849315,75.988 C69.7832877,74.558 70.0824658,73.029 70.0824658,71.4285 Z M67.2575342,71.4945 C67.2575342,72.8145 67.0216438,74.052 66.549863,75.2015 C66.0838356,76.3565 65.4336986,77.352 64.6109589,78.2155 C63.7824658,79.068 62.7928767,79.739 61.6306849,80.2395 C60.4742466,80.7345 59.2027397,80.9765 57.8276712,80.9765 C56.4526027,80.9765 55.1810959,80.729 54.0246575,80.223 C52.8624658,79.7115 51.8613699,79.0295 51.009863,78.1825 C50.1641096,77.3245 49.5024658,76.318 49.0364384,75.1465 C48.5646575,73.986 48.3287671,72.754 48.3287671,71.4285 C48.3287671,70.114 48.5646575,68.882 49.0364384,67.727 C49.5024658,66.5775 50.1526027,65.5765 50.9753425,64.724 C51.8038356,63.8605 52.7934247,63.1895 53.9556164,62.6945 C55.1120548,62.205 56.3835616,61.9575 57.7586301,61.9575 C59.1336986,61.9575 60.4052055,62.2105 61.5616438,62.711 C62.7238356,63.2115 63.7249315,63.8935 64.5764384,64.7515 C65.4221918,65.6095 66.0838356,66.616 66.549863,67.7765 C67.0216438,68.9425 67.2575342,70.1855 67.2575342,71.4945 Z M114.25726,78.4135 L99.079726,59.9445 L96.5309589,59.9445 L96.5309589,82.984 L99.1832877,82.984 L99.1832877,64.0915 L114.740548,82.984 L116.909589,82.984 L116.909589,59.9445 L114.25726,59.9445 L114.25726,78.4135 Z M146.522466,65.703 C146.522466,65.186 146.649041,64.691 146.884932,64.229 C147.126575,63.767 147.471781,63.3765 147.914795,63.0465 C148.369315,62.711 148.910137,62.4525 149.53726,62.249 C150.170137,62.051 150.872055,61.9575 151.654521,61.9575 C152.891507,61.9575 154.082466,62.1555 155.21589,62.546 C156.355068,62.942 157.48274,63.5855 158.610411,64.46 L160.192603,62.4525 C158.949863,61.512 157.672603,60.8025 156.355068,60.3295 C155.031781,59.8565 153.489863,59.6255 151.723562,59.6255 C150.57863,59.6255 149.52,59.774 148.559178,60.104 C147.592603,60.412 146.752603,60.852 146.044932,61.413 C145.331507,61.974 144.779178,62.6395 144.393699,63.3985 C144.002466,64.174 143.806849,65.0155 143.806849,65.934 C143.806849,66.902 143.967945,67.7325 144.290137,68.4365 C144.612329,69.135 145.10137,69.7565 145.774521,70.279 C146.436164,70.807 147.276164,71.258 148.300274,71.6265 C149.31863,72.006 150.521096,72.3305 151.896164,72.6165 C153.156164,72.886 154.197534,73.161 155.008767,73.4415 C155.825753,73.722 156.464384,74.0465 156.924658,74.393 C157.379178,74.7505 157.70137,75.1355 157.885479,75.559 C158.069589,75.988 158.161644,76.4775 158.161644,77.0275 C158.161644,78.2155 157.672603,79.167 156.694521,79.8875 C155.722192,80.608 154.421918,80.9765 152.793699,80.9765 C151.113699,80.9765 149.635068,80.7125 148.352055,80.168 C147.063288,79.6345 145.791781,78.815 144.526027,77.7205 L142.840274,79.629 C144.290137,80.8775 145.809041,81.8015 147.40274,82.4065 C148.996438,83.0115 150.76274,83.3085 152.684384,83.3085 C153.881096,83.3085 154.98,83.1545 155.992603,82.8465 C156.999452,82.5495 157.868219,82.1095 158.593151,81.532 C159.312329,80.9655 159.881918,80.278 160.296164,79.4585 C160.704658,78.6555 160.911781,77.7535 160.911781,76.7635 C160.911781,74.9925 160.278904,73.5955 159.007397,72.5835 C157.730137,71.577 155.750959,70.785 153.06411,70.2185 C151.735068,69.9545 150.641918,69.674 149.796164,69.3715 C148.944658,69.0855 148.283014,68.7555 147.799726,68.3925 C147.316438,68.024 146.98274,67.628 146.804384,67.188 C146.620274,66.7535 146.522466,66.2585 146.522466,65.703 Z M206.847123,59.9445 L204.125753,59.9445 L204.125753,73.3425 C204.125753,75.867 203.475616,77.7645 202.163836,79.0295 C200.857808,80.311 199.091507,80.9435 196.864932,80.9435 C194.546301,80.9435 192.739726,80.278 191.445205,78.936 C190.144932,77.594 189.494795,75.68 189.494795,73.183 L189.494795,59.9445 L186.779178,59.9445 L186.779178,73.3425 C186.779178,74.9705 187.020822,76.406 187.50411,77.649 C187.981644,78.903 188.666301,79.948 189.552329,80.795 C190.432603,81.642 191.491233,82.28 192.716712,82.7035 C193.942192,83.127 195.305753,83.3415 196.79589,83.3415 C198.309041,83.3415 199.678356,83.127 200.915342,82.7035 C202.135068,82.28 203.193699,81.6365 204.073973,80.7785 C204.96,79.9205 205.638904,78.859 206.122192,77.583 C206.605479,76.318 206.847123,74.833 206.847123,73.15 L206.847123,59.9445 Z M233.986027,82.984 L250.268219,82.984 L250.268219,80.5805 L236.701644,80.5805 L236.701644,59.9445 L233.986027,59.9445 L233.986027,82.984 Z M281.670411,62.3535 L289.759726,62.3535 L289.759726,59.9445 L270.830959,59.9445 L270.830959,62.3535 L278.920274,62.3535 L278.920274,82.984 L281.670411,82.984 L281.670411,62.3535 Z M315.799726,82.984 L318.521096,82.984 L318.521096,59.9445 L315.799726,59.9445 L315.799726,82.984 Z M364.001918,78.4135 L348.830137,59.9445 L346.275616,59.9445 L346.275616,82.984 L348.927945,82.984 L348.927945,64.0915 L364.485205,82.984 L366.654247,82.984 L366.654247,59.9445 L364.001918,59.9445 L364.001918,78.4135 Z M415.029041,79.86 L415.029041,70.6805 L405.08137,70.6805 L405.08137,73.007 L412.416986,73.007 L412.416986,78.738 C411.588493,79.376 410.564384,79.915 409.350411,80.366 C408.136438,80.8115 406.836164,81.037 405.461096,81.037 C403.993973,81.037 402.670685,80.795 401.50274,80.322 C400.329041,79.838 399.333699,79.167 398.505205,78.309 C397.682466,77.451 397.043836,76.439 396.595068,75.2675 C396.152055,74.096 395.927671,72.8145 395.927671,71.4285 C395.927671,70.1415 396.157808,68.915 396.612329,67.76 C397.072603,66.6105 397.705479,65.6095 398.505205,64.7515 C399.310685,63.8935 400.27726,63.2115 401.399178,62.711 C402.526849,62.2105 403.752329,61.9575 405.08137,61.9575 C405.932877,61.9575 406.703836,62.018 407.405753,62.1555 C408.107671,62.282 408.746301,62.4635 409.333151,62.6945 C409.92,62.9255 410.460822,63.2005 410.967123,63.5195 C411.473425,63.833 411.956712,64.196 412.416986,64.5865 L414.171781,62.6175 C413.573425,62.1335 412.957808,61.7045 412.330685,61.314 C411.697808,60.929 411.018904,60.61 410.299726,60.346 C409.574795,60.082 408.792329,59.884 407.958082,59.752 C407.118082,59.6255 406.197534,59.554 405.184932,59.554 C403.372603,59.554 401.727123,59.884 400.248493,60.5275 C398.76411,61.171 397.498356,62.04 396.445479,63.1455 C395.386849,64.24 394.56411,65.505 393.983014,66.9625 C393.396164,68.4035 393.10274,69.9215 393.10274,71.4945 C393.10274,73.15 393.384658,74.6845 393.948493,76.142 C394.506575,77.583 395.323562,78.848 396.387945,79.9205 C397.458082,80.9985 398.741096,81.8455 400.248493,82.4505 C401.750137,83.072 403.453151,83.3745 405.357534,83.3745 C407.4,83.3745 409.241096,83.0335 410.880822,82.346 C412.526301,81.653 413.907123,80.817 415.029041,79.86 Z" id="Fill-5" fill="#888B88"></path>
            </g>
        </g>
    </g>
</svg>