<?xml version="1.0" encoding="UTF-8"?>
<svg width="140px" height="140px" viewBox="0 0 140 140" version="1.1" xmlns="http://www.w3.org/2000/svg" xmlns:xlink="http://www.w3.org/1999/xlink">
    <!-- Generator: Sketch 48.2 (47327) - http://www.bohemiancoding.com/sketch -->
    <title>create_icon_lg</title>
    <desc>Created with Sketch.</desc>
    <defs></defs>
    <g id="Page-1" stroke="none" stroke-width="1" fill="none" fill-rule="evenodd">
        <g id="create_icon_lg" fill="#4FC2AA">
            <g id="noun_563261_cc">
                <path d="M70,140 C108.659932,140 140,108.659932 140,70 C140,31.3400675 108.659932,0 70,0 C31.3400675,0 0,31.3400675 0,70 C0,108.659932 31.3400675,140 70,140 Z M70.392,119.611333 C66.5163333,119.611333 65.1478333,117.6175 64.407,114.347333 L61.6676667,114.347333 C60.5395,114.347333 59.626,113.432667 59.626,112.305667 C59.626,111.178667 60.5395,110.264 61.6676667,110.264 L66.115,110.264 C67.13,110.264 67.9898333,111.0095 68.1356667,112.014 C68.1356667,112.018667 68.2255,112.6475 68.2651667,112.8575 C68.7761667,115.528 69.0223333,115.528 70.3896667,115.528 C71.8981667,115.528 72.1303333,115.528 72.597,112.750167 C72.6215,112.5845 72.6681667,112.110833 72.6693333,112.105 C72.772,111.059667 73.6516667,110.264 74.7005,110.264 L79.1676667,110.264 C80.2958333,110.264 81.2093333,111.178667 81.2093333,112.305667 C81.2093333,113.432667 80.2958333,114.347333 79.1676667,114.347333 L76.4505,114.347333 C75.7516667,117.623333 74.3563333,119.611333 70.392,119.611333 Z M77.9473333,108.731 C75.3305,108.731 69.965,108.722833 66.0485,108.715833 L61.537,108.71 C60.4088333,108.71 59.4953333,107.795333 59.4953333,106.668333 C59.4953333,105.541333 60.4088333,104.626667 61.537,104.626667 L66.0555,104.6325 C70.9893333,104.6395 78.2378333,104.65 79.3426667,104.645333 C79.3473333,104.645333 79.352,104.645333 79.3555,104.645333 C80.4778333,104.645333 81.3901667,105.550667 81.3971667,106.674167 C81.4041667,107.802333 80.4953333,108.721667 79.3683333,108.728667 C79.1361667,108.729833 78.6368333,108.731 77.9473333,108.731 Z M36.561,106.912167 C36.0383333,106.912167 35.5156667,106.712667 35.1178333,106.313667 C34.3198333,105.516833 34.3198333,104.223 35.1178333,103.426167 L45.8523333,92.6916667 C46.6503333,91.8936667 47.9418333,91.8936667 48.7398333,92.6916667 C49.5378333,93.4885 49.5378333,94.7823333 48.7398333,95.5791667 L38.0053333,106.313667 C37.6063333,106.712667 37.0848333,106.912167 36.561,106.912167 Z M106.247167,105.807333 C105.7245,105.807333 105.201833,105.607833 104.804,105.208833 L94.0706667,94.4743333 C93.2726667,93.6763333 93.2726667,92.3836667 94.0706667,91.5868333 C94.8686667,90.7888333 96.1601667,90.7888333 96.9581667,91.5868333 L107.6915,102.321333 C108.4895,103.119333 108.4895,104.412 107.6915,105.208833 C107.291333,105.607833 106.769833,105.807333 106.247167,105.807333 Z M80.4825,103.199833 C80.4813333,103.199833 80.479,103.199833 80.4778333,103.199833 L60.8848333,103.153167 C59.9095,103.150833 59.0718333,102.460167 58.8851667,101.502333 C58.6506667,100.2995 57.5283333,94.5245 57.4583333,94.0636667 C56.7128333,89.2523333 54.243,86.0416667 51.3823333,82.3235 C48.216,78.211 44.632,73.556 44.632,66.7671667 C44.632,52.6983333 55.8775,42.0886667 70.7898333,42.0886667 C85.701,42.0886667 96.9465,52.7275 96.9465,66.8348333 C96.9465,74.4951667 93.688,79.0008333 90.5368333,83.3595 C90.5368333,83.3595 90.5356667,83.3618333 90.5356667,83.3618333 C88.354,86.3788333 85.8818333,89.7995 83.9556667,94.8826667 C83.7491667,95.5441667 82.7458333,99.4443333 82.6641667,100.041667 L82.5101667,101.388 C82.3935,102.4205 81.5208333,103.199833 80.4825,103.199833 Z M62.573,99.0733333 L78.687,99.1118333 C78.9786667,97.6523333 79.8991667,94.1803333 80.0823333,93.5935 C80.0951667,93.5561667 80.1231667,93.4733333 80.1371667,93.4371667 C82.2546667,87.8465 84.896,84.1936667 87.2258333,80.9701667 L87.2281667,80.9678333 C90.2521667,76.7865 92.8631667,73.1745 92.8631667,66.836 C92.8631667,55.0561667 83.3735,46.1731667 70.7898333,46.1731667 C58.205,46.1731667 48.7153333,55.027 48.7153333,66.7683333 C48.7153333,72.1676667 51.5806667,75.8881667 54.614,79.828 C57.5551667,83.65 60.5885,87.5945 61.4938333,93.4441667 C61.544,93.7428333 62.1203333,96.7365 62.573,99.0733333 Z M37.0545,72.5095 L21.875,72.5095 C20.7468333,72.5095 19.8333333,71.5948333 19.8333333,70.4678333 C19.8333333,69.3408333 20.7468333,68.4261667 21.875,68.4261667 L37.0556667,68.4261667 C38.1838333,68.4261667 39.0973333,69.3408333 39.0973333,70.4678333 C39.0973333,71.5948333 38.1826667,72.5095 37.0545,72.5095 Z M120.127,71.2436667 L104.9475,71.2436667 C103.819333,71.2436667 102.905833,70.329 102.905833,69.202 C102.905833,68.075 103.819333,67.1603333 104.9475,67.1603333 L120.128167,67.1603333 C121.256333,67.1603333 122.169833,68.075 122.169833,69.202 C122.169833,70.329 121.255167,71.2436667 120.127,71.2436667 Z M46.6993333,48.1716667 C46.1766667,48.1716667 45.654,47.9721667 45.2561667,47.5731667 L34.5228333,36.8386667 C33.7248333,36.0406667 33.7248333,34.748 34.5228333,33.9511667 C35.3208333,33.1531667 36.6123333,33.1531667 37.4103333,33.9511667 L48.1436667,44.6856667 C48.9416667,45.4836667 48.9416667,46.7763333 48.1436667,47.5731667 C47.7435,47.9721667 47.222,48.1716667 46.6993333,48.1716667 Z M94.619,47.3643333 C94.0963333,47.3643333 93.5736667,47.1648333 93.1758333,46.7658333 C92.3778333,45.969 92.3778333,44.6751667 93.1758333,43.8783333 L103.909167,33.1438333 C104.707167,32.3458333 105.998667,32.3458333 106.796667,33.1438333 C107.594667,33.9406667 107.594667,35.2345 106.796667,36.0313333 L96.0633333,46.7658333 C95.6643333,47.1648333 95.1416667,47.3643333 94.619,47.3643333 Z M70.3686667,37.9306667 C69.2405,37.9306667 68.327,37.016 68.327,35.889 L68.327,20.7083333 C68.327,19.5813333 69.2405,18.6666667 70.3686667,18.6666667 C71.4968333,18.6666667 72.4103333,19.5813333 72.4103333,20.7083333 L72.4103333,35.889 C72.4103333,37.016 71.4968333,37.9306667 70.3686667,37.9306667 Z" id="Shape" fill-rule="nonzero"></path>
            </g>
        </g>
    </g>
</svg>