<?xml version="1.0" encoding="UTF-8"?>
<svg width="140px" height="140px" viewBox="0 0 140 140" version="1.1" xmlns="http://www.w3.org/2000/svg" xmlns:xlink="http://www.w3.org/1999/xlink">
    <!-- Generator: Sketch 48.2 (47327) - http://www.bohemiancoding.com/sketch -->
    <title>elevate_icon_lg</title>
    <desc>Created with Sketch.</desc>
    <defs></defs>
    <g id="Page-1" stroke="none" stroke-width="1" fill="none" fill-rule="evenodd">
        <g id="elevate_icon_lg">
            <g id="noun_780226_cc">
                <circle id="Path" fill="#4FC2AA" cx="70" cy="70" r="70"></circle>
                <path d="M39.2977937,65.3027803 L48.8285374,69.2518215 C47.7539439,71.9627433 46.8967623,74.7547533 46.265096,77.6014575 L45.9035851,79.2434705 L59.5670565,92.9050185 L61.2102882,92.5519857 C64.0591052,91.9207879 66.8531875,91.0642421 69.5661212,89.9904455 L73.5180934,99.5141208 C73.596769,99.7058581 73.7666844,99.8451908 73.9702286,99.8848773 C74.1737728,99.9245638 74.3836429,99.8592806 74.5286809,99.7111624 L80.5018281,93.7424452 C82.4730866,91.7728819 83.5178437,89.0615109 83.3774835,86.2794961 L83.1638634,82.4453958 C94.2228126,74.2845913 105.41322,59.9744481 108.461415,34.9994307 C108.636659,33.7301455 108.208742,32.4518915 107.304469,31.5434572 C106.400196,30.6350229 105.123294,30.2006118 103.85215,30.368954 C78.8668126,33.4395183 64.5378323,44.6298368 56.3709709,55.6477439 L52.542241,55.4507024 C49.764324,55.2996636 47.0518376,56.3283916 45.0737531,58.2831748 L39.1006059,64.251892 C38.9321415,64.3950035 38.8533254,64.6173387 38.8940743,64.8345047 C38.9348231,65.0516707 39.0888895,65.2303729 39.2977937,65.3027803 Z M77.6179565,50.7545452 C80.5083469,47.8763097 85.1856432,47.8817193 88.0693583,50.7666328 C90.9530735,53.6515464 90.9530735,58.3253769 88.0693583,61.2102904 C85.1856432,64.095204 80.5083469,64.1006135 77.6179565,61.222378 C76.2256539,59.8359305 75.4430596,57.9526074 75.4430596,55.9884616 C75.4430596,54.0243158 76.2256539,52.1409927 77.6179565,50.7545452 Z M37.5148873,93.9969572 C35.933299,93.4423376 34.2349053,93.3065668 32.5851923,93.6028741 C32.2871613,93.6672902 31.9769066,93.5742828 31.7635764,93.3565721 C31.4970613,93.0913 31.4248503,92.6878742 31.582821,92.3467341 C33.3328627,88.5865244 37.9749922,81.0250546 46.3801222,87.1333429 C46.4689245,87.212773 46.5196761,87.3262318 46.5196761,87.4453254 C46.5196761,87.564419 46.4689245,87.6778778 46.3801222,87.7573078 C44.0979667,89.553236 42.8075006,92.3273571 42.9046872,95.2284669 C42.9173741,95.5767555 43.1970005,95.8561745 43.5455476,95.868852 C46.4362218,95.9849873 49.2105919,94.7237374 51.0222517,92.4698851 C51.1018326,92.3725184 51.2209827,92.3160339 51.34679,92.3160339 C51.4725973,92.3160339 51.5917473,92.3725184 51.6713283,92.4698851 C52.8380227,93.8573861 56.0505407,98.3893419 52.4929441,102.765307 C50.9398249,104.630642 48.7144886,105.810316 46.2979607,106.049332 C42.8471741,106.418785 36.4714352,107.543564 33.866913,110.515608 C33.6538812,110.767825 33.3192149,110.8824 32.9961576,110.813715 C32.6731002,110.745031 32.4141002,110.504238 32.3222752,110.187205 C31.4020655,107.05096 29.9724539,100.039565 37.5148873,93.9969572 Z" id="Shape" fill="#FFFFFF" fill-rule="nonzero"></path>
            </g>
        </g>
    </g>
</svg>