<?xml version="1.0" encoding="UTF-8"?>
<svg width="150px" height="151px" viewBox="0 0 150 151" version="1.1" xmlns="http://www.w3.org/2000/svg" xmlns:xlink="http://www.w3.org/1999/xlink">
    <!-- Generator: Sketch 50 (54983) - http://www.bohemiancoding.com/sketch -->
    <title>LG Icon</title>
    <desc>Created with Sketch.</desc>
    <defs></defs>
    <g id="Page-1" stroke="none" stroke-width="1" fill="none" fill-rule="evenodd">
        <g id="LG-Icon">
            <circle id="Oval" fill="#FFFFFF" cx="75.0000153" cy="75.0000153" r="74.8000031"></circle>
            <path d="M75.0511111,78.8475556 C81.3257778,74.2657778 88.5248889,71.608 96.6426667,70.8684444 C103.212,70.2791111 107.863111,72.128 110.590222,76.4093333 C111.549333,79.2115556 110.890667,80.9448889 108.602667,81.6093333 C106.678667,81.904 105.424889,80.7657778 104.835556,78.1831111 C104.616,77.2933333 104.246222,76.7733333 103.726222,76.6288889 C101.368889,75.7448889 98.9306667,75.3 96.4173333,75.3 C88.964,75.3 82.4697778,78.4431111 76.9346667,84.7177778 C73.6124444,88.4791111 71.9484444,92.5004444 71.9484444,96.7817778 C71.9484444,97.8911111 72.0986667,98.9946667 72.3933333,100.104 C72.7631111,101.872 73.6471111,103.484 75.0511111,104.922667 C76.4551111,106.361333 77.9631111,107.262667 79.5924444,107.632444 C80.5515556,107.852 81.4702222,107.967556 82.36,107.967556 C84.7231111,107.967556 86.416,107.187556 87.4502222,105.644889 C87.0111111,99.4395556 88.964,95.2333333 93.3204444,93.0204444 C94.4991111,92.4253333 95.5333333,92.1306667 96.4173333,92.1306667 C97.1568889,92.1306667 97.8617778,92.3155556 98.5262222,92.6853333 C99.3351111,94.0142222 99.7453333,95.4528889 99.7453333,97.0013333 C99.7453333,98.8502222 98.8208889,101.542667 96.972,105.090222 C96.4346667,105.858667 96.0648889,107.112444 95.8626667,109.019111 C93.4128889,109.562222 90.9515556,109.989778 88.5248889,110.290222 C81.3546667,111.168444 72.8613333,111.064444 65.8817778,108.123556 C63.8017778,105.858667 62.7617778,103.108444 62.7617778,99.8844444 C62.7617778,99.2142222 62.8311111,98.5151111 62.9813333,97.7755556 C64.0155556,90.2528889 68.0368889,83.9377778 75.0511111,78.8475556 Z M95.0942222,97.2266667 C93.0026667,96.8511111 93.1124444,100.381333 93.384,102.6 C94.4182222,101.051556 95.6951111,98.7173333 95.4235556,97.8911111 C95.308,97.5386667 95.3195556,97.2613333 95.0942222,97.2266667 Z M149.578667,74.8724444 C149.578667,36.8893333 121.238667,5.516 84.5555556,0.743555556 C86.4217778,3.38977778 87.196,7.42844444 86.8666667,12.848 C86.0577778,25.172 82.2155556,38.9404444 75.3515556,54.1475556 C68.8573333,68.6151111 60.7395556,81.124 50.9924444,91.6857778 C55.8168889,118.621778 90.8013333,114.646667 109.839111,106.355556 C110.659556,105.991556 111.162222,106.835111 111.162222,108.233333 C111.162222,109.342667 110.642222,109.799111 109.839111,110.232444 C105.864,112.335556 100.952889,114.086222 95.5968889,115.299556 C95.9146667,121.897778 96.8853333,132.962222 98.22,145.887111 C128.039111,136.064889 149.578667,107.979111 149.578667,74.8724444 Z" id="Fill-6" fill="#7F7F7F"></path>
            <path d="M60.6666667,70.7088889 C72.4764444,49.6777778 78.6008889,28.5253333 79.0457778,9.92088889 C78.8262222,8.37244444 78.8435556,6.70844444 78.2657778,5.16 C77.4222222,2.88933333 77.2373333,2.28266667 76.0528889,1.39288889 C74.5795556,1.02311111 73.58,0.953777778 73.0657778,1.17333333 C65.5373333,7.22844444 59.8866667,16.5653333 56.1253333,29.184 C50.5844444,43.5071111 47.9555556,61.0022222 47.9266667,81.6693333 C47.9266667,82.9173333 49.5155556,84.5062222 50.2551111,83.992 C52.2253333,82.6457778 55.4955556,77.9426667 60.6666667,70.7088889 Z M44.72,100.603111 C39.5777778,89.2382222 39.1848889,81.2302222 39.1848889,75.0248889 C39.1848889,75.0248889 39.0577778,69.4146667 39.1675556,67.1266667 C39.2542222,65.3991111 39.2657778,63.92 39.3986667,63.3191111 L39.624,60.5226667 C42.9173333,33.2804444 51.7631111,13.4453333 66.1786667,1 C28.9351111,5.25244444 0,36.8857778 0,75.2675556 C0,116.544 33.4706667,150.020444 74.7528889,150.020444 C79.9355556,150.020444 84.9911111,149.494667 89.8791111,148.483556 C88.1053333,146.34 86.0888889,143.601333 83.8355556,140.244444 C79.6293333,133.975556 75.8622222,129.948444 72.54,128.180444 C71.3613333,127.221333 69.6626667,125.707556 67.4497778,123.639111 C65.676,121.940444 64.792,120.132 64.792,118.213778 C64.792,118.023111 64.7977778,117.820889 64.8151111,117.612889 C66.6813333,118.086667 68.5822222,118.450667 70.4888889,118.716444 C70.6564444,118.999556 70.8991111,119.305778 71.2111111,119.652444 C74.1635556,121.720889 77.4857778,124.892889 81.1777778,129.174222 C81.5475556,129.619111 84.5,133.305333 90.0408889,140.244444 C89.8213333,134.432 89.0471111,124.933333 88.0533333,116.994667 C70.8875556,119.086222 52.3582222,115.544444 44.72,100.603111 Z" id="Fill-7" fill="#6FBFAB"></path>
        </g>
    </g>
</svg>