<?xml version="1.0" encoding="UTF-8"?>
<svg width="52px" height="54px" viewBox="0 0 52 54" version="1.1" xmlns="http://www.w3.org/2000/svg" xmlns:xlink="http://www.w3.org/1999/xlink">
    <!-- Generator: Sketch 48.2 (47327) - http://www.bohemiancoding.com/sketch -->
    <title>lg_logo_bw</title>
    <desc>Created with Sketch.</desc>
    <defs>
        <circle id="path-1" cx="25" cy="26.5151515" r="25"></circle>
        <path d="M21.5316156,29.8517244 C22.4628464,27.3622213 23.0526226,25.6711877 23.3009441,24.7786238 C24.2703619,21.2941601 24.3989118,18.3050227 24.3989118,14.9288398 C24.3989118,7.29308475 22.8703013,1.10308224 20.9846647,1.10308224 C19.0990281,1.10308224 17.5704176,7.29308475 17.5704176,14.9288398 C17.5704176,19.7500908 18.6562555,24.7293111 20.8279314,29.8665006 L20.8279206,29.8665052 C20.9093797,30.0591999 21.1316252,30.1493743 21.32432,30.0679152 C21.4201844,30.0273899 21.4951514,29.949206 21.5316156,29.8517244 Z" id="path-2"></path>
        <path d="M31.6810101,35.3698228 C31.8718668,35.1023535 31.9672951,34.8085332 31.9672951,34.4883621 C31.9672951,34.4883621 31.9672951,34.4883621 31.9672951,34.4883621 L31.9672951,34.4883621 C31.9672951,34.2791633 31.797706,34.1095742 31.5885072,34.1095742 C31.3793084,34.1095742 31.2097193,34.2791633 31.2097193,34.4883621 C31.2097193,34.4883621 31.2097193,34.4883621 31.2097193,34.4883621 C31.2097193,34.8085312 31.3051464,35.1023497 31.4960007,35.3698177 L31.4959939,35.3698225 C31.5324503,35.4209133 31.6034214,35.432777 31.6545122,35.3963206 C31.6647503,35.3890151 31.6737046,35.3800608 31.6810101,35.3698228 Z" id="path-3"></path>
        <path d="M22.0432212,1.89393939 C20.3577424,3.37953885 18.5787697,5.7464213 17.0871554,8.71951217 C16.186673,10.5143569 15.5948783,12.5203209 14.9286834,14.6993461 C13.0952082,20.6963732 12.8274116,26.5832681 14.1252934,32.3600309 L14.125279,32.3600341 C14.1297276,32.3798345 14.1357106,32.3990564 14.1431043,32.417564 C14.4982794,34.0841571 15.7723769,37.3822469 19.3281232,39.3409005 C20.3272816,39.8912786 22.0579213,40.443154 24.6158481,40.6453121 C25.5565682,40.7196591 27.2207963,40.7196591 29.6085324,40.6453121 L30.156406,47.9959553 C28.7734127,46.191997 27.6870175,44.9191117 26.8972204,44.1772994 C26.3631373,43.675665 25.6445887,42.4935324 24.4439149,41.6491534 C24.1785514,41.4625354 21.9815191,40.5505455 21.9478859,40.9874665 C21.9308579,41.208674 22.4128238,42.3362357 23.3707208,43.3792412 C23.6608433,43.695141 26.1782485,45.9484287 27.9355614,47.9959553 C29.2052263,49.4753007 29.8142451,50.9163499 30.156406,51.1125503 C30.1735972,51.122408 30.2020094,51.1428131 30.2397449,51.1709334 C28.5500672,51.5312852 26.7971794,51.7209202 25,51.7209202 C11.1928813,51.7209202 0,40.528039 0,26.7209202 C0,13.9142065 9.62966509,3.35662149 22.0432212,1.89393939 Z" id="path-4"></path>
    </defs>
    <g id="Page-1" stroke="none" stroke-width="1" fill="none" fill-rule="evenodd">
        <g id="lg_logo_bw" transform="translate(1.000000, 1.000000)" fill="#FFFFFF">
            <g id="logo-circle">
                <use xlink:href="#path-1"></use>
                <use stroke="#000000" stroke-width="0.5" xlink:href="#path-1"></use>
            </g>
            <path d="M14.0823506,32.2632856 C14.074909,32.2446972 14.0688907,32.2253872 14.0644211,32.2054932 L14.064481,32.2054798 C12.7666128,26.4287342 13.0344135,20.5418571 14.867883,14.5448485 C15.5340778,12.3658233 16.1258725,10.3598593 17.0263549,8.56501459 C19.887535,2.86210041 23.8060224,-0.610328935 26.0938581,0.0891326399 C26.8589237,0.323036669 27.8295498,0.706900331 28.3578288,1.69760739 C28.8717532,2.66139468 28.9545462,4.21252954 28.905206,5.8376009 C28.805864,9.10952568 27.6717934,13.741115 25.8283254,18.2057862 C24.0739248,22.4547461 20.5201466,29.0288914 17.0592816,32.1546235 C17.8357074,33.8439694 18.4375535,34.9725272 18.8648199,35.5402967 C19.3738687,36.2167422 21.6530202,38.1520023 24.5550477,38.6881788 C27.9920292,39.3231931 32.1119196,38.4961851 32.4872364,38.4063968 C34.9693843,37.8125845 36.9747605,36.6791617 37.2318101,36.8552336 C37.716137,37.1869843 37.922918,37.7253113 37.5982411,38.0193969 C37.2735641,38.3134826 36.2715627,38.8120984 35.3278103,39.1864029 C34.6986421,39.4359392 33.6836231,39.7496679 32.2827531,40.1275889 C32.9036404,45.8057606 33.0863413,49.2395263 32.8308559,50.428886 C32.6956138,51.0584778 32.4202422,51.5985253 31.819269,51.7518291 C31.2182957,51.9051329 30.2432312,51.0427035 30.0956056,50.9580527 C29.7534446,50.7618523 29.1444259,49.3208031 27.8747609,47.8414577 C26.1174481,45.7939312 23.6000429,43.5406434 23.3099203,43.2247437 C22.3520234,42.1817381 21.8700574,41.0541764 21.8870855,40.8329689 C21.9207186,40.396048 24.117751,41.3080378 24.3831144,41.4946558 C25.5837883,42.3390349 26.3023368,43.5211674 26.83642,44.0228019 C27.6262171,44.7646141 28.7126123,46.0374994 30.0956056,47.8414577 L29.547732,40.4908145 C27.1599959,40.5651615 25.4957678,40.5651615 24.5550477,40.4908145 C21.9971209,40.2886564 20.2664811,39.736781 19.2673228,39.1864029 C15.7117324,37.2278352 14.4375907,33.9299487 14.0823506,32.2632856 Z M21.4856011,32.1255892 C21.6148423,31.8129718 22.3429944,30.3627196 23.644256,28.9404135 C24.8088688,27.6674672 26.4516241,26.4390812 28.2247896,25.7082005 C30.100196,24.9351771 33.7358684,24.5999673 35.5998938,25.559895 C37.2022993,26.3850947 37.2088846,28.4468652 36.9669639,28.7879061 C36.7324891,29.1184504 35.1047125,29.2551463 35.1047125,27.4708925 C35.1047125,27.157845 33.3252899,26.6691507 31.6841395,26.7981255 C29.7906507,26.9469311 27.9964442,27.8521636 27.2316312,28.4474543 C24.6144297,30.4845479 24.1601903,34.7638516 24.5736244,35.4940963 C25.5719689,37.2574624 28.9693502,37.1960546 28.9693502,36.8472957 C28.9693502,36.2035951 28.900312,35.1227482 29.3777372,34.0753093 C29.6800478,33.4120601 31.2792285,31.912102 32.2902751,31.9478814 C33.1683501,31.978955 33.5068526,33.2092804 33.5806371,33.830168 C33.6269672,34.2200298 33.5926085,36.8889792 32.1465744,37.579228 C29.3416493,38.9181288 23.8995886,38.2986535 22.5206863,37.4658986 C20.2712035,36.1073777 21.1026252,33.0519576 21.4856011,32.1255892 Z" id="Combined-Shape" stroke="#000000" stroke-width="0.5"></path>
            <g id="inner-oval" transform="translate(20.984665, 15.600495) rotate(18.000000) translate(-20.984665, -15.600495) ">
                <use xlink:href="#path-2"></use>
                <use xlink:href="#path-2"></use>
                <use stroke="#000000" stroke-width="0.5" xlink:href="#path-2"></use>
            </g>
            <g id="Oval" opacity="0.801403986" transform="translate(31.588507, 34.825735) rotate(14.000000) translate(-31.588507, -34.825735) ">
                <use xlink:href="#path-3"></use>
                <use stroke="#000000" stroke-width="0.5" xlink:href="#path-3"></use>
            </g>
            <g id="Combined-Shape">
                <use xlink:href="#path-4"></use>
                <use xlink:href="#path-4"></use>
                <use stroke="#000000" stroke-width="0.5" xlink:href="#path-4"></use>
            </g>
        </g>
    </g>
</svg>