<?xml version="1.0" encoding="UTF-8"?>
<svg width="115px" height="120px" viewBox="0 0 115 120" version="1.1" xmlns="http://www.w3.org/2000/svg" xmlns:xlink="http://www.w3.org/1999/xlink">
    <!-- Generator: Sketch 48.2 (47327) - http://www.bohemiancoding.com/sketch -->
    <title>LG logo</title>
    <desc>Created with Sketch.</desc>
    <defs>
        <linearGradient x1="50%" y1="0%" x2="50%" y2="100%" id="linearGradient-1">
            <stop stop-color="#666666" offset="0%"></stop>
            <stop stop-color="#000000" stop-opacity="0.5" offset="100%"></stop>
        </linearGradient>
        <ellipse id="path-2" cx="57.5" cy="61.1650485" rx="57.5" ry="57.6699029"></ellipse>
        <linearGradient x1="50%" y1="0%" x2="50%" y2="100%" id="linearGradient-3">
            <stop stop-color="#FFFFFF" stop-opacity="0.5" offset="0%"></stop>
            <stop stop-color="#000000" stop-opacity="0.5" offset="100%"></stop>
        </linearGradient>
        <path d="M39.2487087,67.6427287 C39.0996618,67.8305997 38.8801084,67.9486873 38.6416087,67.9692598 C38.1622063,68.0106118 37.7401502,67.6543536 37.6989199,67.1735347 L37.6989468,67.1735324 C36.5997592,54.35503 37.7634912,42.6571233 41.1901427,32.0798122 C46.6171723,15.327779 54.3603774,2.8372263 58.4850755,4.181382 C62.6097736,5.52553769 61.5540253,20.1953973 56.1269957,36.9474306 C53.7274105,44.3544162 51.32172,50.8206298 46.7246418,57.7741329 C45.5470757,59.5553098 43.055098,62.8448417 39.2487087,67.6427287 Z" id="path-4"></path>
        <path d="M72.5497671,81.4596014 C72.5277669,81.47844 72.5028013,81.4934851 72.4758884,81.5041232 C72.3415848,81.5572105 72.1898013,81.4910501 72.1368704,81.3563497 L72.136888,81.3563427 C71.8597871,80.6511671 71.8103109,79.9402661 71.9884595,79.2236398 C72.104862,78.7553956 72.5776934,78.4704503 73.0445582,78.5871967 C73.5114229,78.7039431 73.7955287,79.1781717 73.6791263,79.646416 C73.5009766,80.3630468 73.1245235,80.9674419 72.5497671,81.4596014 Z" id="path-5"></path>
        <path d="M50.6994087,3.89426554 C46.8228075,7.3212406 42.7311702,12.7811558 39.3004573,19.6394703 C37.2293478,23.7798111 35.86822,28.4071612 34.3359719,33.4337279 C30.1189789,47.2676468 29.5030466,60.8475132 32.4881748,74.1733271 L32.4881418,74.1733345 C32.4983736,74.21901 32.5121344,74.263351 32.5291399,74.3060442 C33.3460427,78.1505348 36.2764669,85.7585556 44.4546835,90.2767699 C46.7527476,91.5463801 50.7332191,92.8194441 56.6164507,93.2857816 C58.7801069,93.457285 62.6078315,93.457285 68.0996245,93.2857816 L69.3597338,110.242217 C66.1788493,106.080853 63.6801404,103.144566 61.863607,101.433356 C60.6352157,100.276188 58.9825541,97.5492491 56.2210042,95.6014388 C55.6106683,95.1709492 50.5574939,93.0671745 50.4801376,94.0750621 C50.4409731,94.5853426 51.5494948,97.1863977 53.7526578,99.5923987 C54.4199396,100.321115 60.2099715,105.51899 64.2517912,110.242217 C67.1720206,113.654765 68.5727636,116.978972 69.3597338,117.431566 C69.3992737,117.454306 69.4646215,117.501376 69.5514133,117.566244 C65.6651545,118.397502 61.6335126,118.834951 57.5,118.834951 C25.7436269,118.834951 0,93.0152564 0,61.1650485 C0,31.622571 22.1482297,7.26837492 50.6994087,3.89426554 Z" id="path-6"></path>
    </defs>
    <g id="Page-1" stroke="none" stroke-width="1" fill="none" fill-rule="evenodd">
        <g id="LG-logo">
            <g id="logo-circle">
                <use fill="#D8D8D8" xlink:href="#path-2"></use>
                <use fill="url(#linearGradient-1)" xlink:href="#path-2"></use>
            </g>
            <path d="M32.3892989,74.4243163 C32.3722934,74.3816231 32.3585326,74.337282 32.3483008,74.2916066 L32.3483339,74.2915992 C29.3632056,60.9657852 29.979138,47.3859188 34.1961309,33.552 C35.728379,28.5254333 37.0895068,23.8980831 39.1606163,19.7577424 C45.7413306,6.60228211 54.7538515,-1.40790442 60.0158737,0.205610828 C61.7755246,0.745179734 64.0079645,1.63067494 65.2230061,3.91603413 C66.4050324,6.13929492 66.5954564,9.71744678 66.4819737,13.4661551 C66.2534872,21.0138185 63.6451249,31.6979506 59.4051483,41.9970369 C55.370027,51.7985211 47.1963372,66.9637338 39.2363476,74.1741607 C41.022127,78.0711373 42.406373,80.6744899 43.3890858,81.9842185 C44.5598981,83.5446403 49.8019465,88.0088908 56.4766097,89.2457407 C64.3816672,90.7105891 73.857415,88.8028503 74.7206437,88.595727 C80.4295839,87.225923 85.0419492,84.6113478 85.6331631,85.0175097 C86.747115,85.7827909 87.2227114,87.0246016 86.4759544,87.7029972 C85.7291975,88.3813929 83.4245941,89.5315979 81.2539638,90.395042 C79.8068769,90.9706715 77.472333,91.6943795 74.2503322,92.5661662 C75.6783729,105.664551 76.098585,113.585548 75.5109685,116.329158 C75.1999117,117.781498 74.5665571,119.027278 73.1843186,119.380918 C71.8020802,119.734559 69.5594319,117.74511 69.2198928,117.549838 C68.4329226,117.097244 67.0321796,113.773037 64.1119502,110.360489 C60.0701306,105.637263 54.2800986,100.439387 53.6128168,99.7106708 C51.4096538,97.3046697 50.3011321,94.7036147 50.3402966,94.1933341 C50.4176529,93.1854465 55.4708273,95.2892212 56.0811632,95.7197108 C58.8427131,97.6675212 60.4953747,100.39446 61.723766,101.551628 C63.5402994,103.262838 66.0390083,106.199125 69.2198928,110.360489 L67.9597836,93.4040537 C62.4679905,93.5755571 58.6402659,93.5755571 56.4766097,93.4040537 C50.5933781,92.9377161 46.6129066,91.6646521 44.3148425,90.395042 C36.1366259,85.8768277 33.2062017,78.2688069 32.3892989,74.4243163 Z M49.4168826,74.1071844 C49.7141373,73.3860397 51.3888871,70.0406038 54.3817887,66.7596334 C57.0603983,63.823206 60.8387353,60.9895698 64.917016,59.303577 C69.2304507,57.5203698 77.5924972,56.7471091 81.8797558,58.9614665 C85.5652885,60.8650341 85.5804345,65.6211182 85.0240171,66.4078299 C84.484725,67.1703284 80.7408388,67.4856579 80.7408388,63.3697481 C80.7408388,62.6476115 76.6481668,61.5202934 72.8735208,61.8178119 C68.5184966,62.1610759 64.3918216,64.2492628 62.6327517,65.6224771 C56.6131882,70.3216368 55.5684376,80.1931178 56.5193362,81.8776434 C58.8155286,85.9453696 66.6295056,85.8037144 66.6295056,84.9991986 C66.6295056,83.5143125 66.4707176,81.0210192 67.5687955,78.6047911 C68.2641098,77.0748105 71.9422256,73.6147131 74.2676327,73.6972486 C76.2872053,73.7689293 77.0657611,76.6070391 77.2354654,78.0393002 C77.3420246,78.9386318 77.2629997,85.095354 73.9371212,86.6876172 C67.4857933,89.7761883 54.9690537,88.3471851 51.7975784,86.4261894 C46.623768,83.2923586 48.5360381,76.2441275 49.4168826,74.1071844 Z" id="Combined-Shape" fill="#FFFFFF"></path>
            <g id="inner-oval">
                <use fill="#D8D8D8" xlink:href="#path-4"></use>
                <use fill="url(#linearGradient-3)" xlink:href="#path-4"></use>
                <use fill="#4FC2AA" xlink:href="#path-4"></use>
            </g>
            <g id="Oval" opacity="0.801403986">
                <use fill="#D8D8D8" xlink:href="#path-5"></use>
                <use fill="#5C5C5C" xlink:href="#path-5"></use>
            </g>
            <g id="Combined-Shape">
                <use fill="#D8D8D8" xlink:href="#path-6"></use>
                <use fill="url(#linearGradient-1)" xlink:href="#path-6"></use>
                <use fill="#4FC2AA" xlink:href="#path-6"></use>
            </g>
        </g>
    </g>
</svg>