<?xml version="1.0" encoding="UTF-8"?>
<svg width="494px" height="100px" viewBox="0 0 494 100" version="1.1" xmlns="http://www.w3.org/2000/svg" xmlns:xlink="http://www.w3.org/1999/xlink">
    <!-- Generator: Sketch 50 (54983) - http://www.bohemiancoding.com/sketch -->
    <title>Brand</title>
    <desc>Created with Sketch.</desc>
    <defs></defs>
    <g id="Symbols" stroke="none" stroke-width="1" fill="none" fill-rule="evenodd">
        <g id="Brand" transform="translate(40.000000, 9.000000)">
            <g transform="translate(-40.000000, -9.000000)">
                <path d="M47.9016168,11.6416667 L47.9016168,55.5041667 L54.2889555,55.5041667 L54.2889555,1.36190476 L47.8194646,1.36190476 L27.1992459,30.9113095 L6.57218124,1.36190476 L0.102690332,1.36190476 L0.102690332,55.5041667 L6.33257047,55.5041667 L6.33257047,11.7202381 L26.9527891,40.647619 L27.2813982,40.647619 L47.9016168,11.6416667 Z M97.2340523,0.969047619 L91.250629,0.969047619 L65.4548176,55.5041667 L71.9996147,55.5041667 L78.7155624,41.197619 L109.529508,41.197619 L116.156457,55.5041667 L123.03671,55.5041667 L97.2340523,0.969047619 Z M107.017018,35.7041667 L81.2212065,35.7041667 L94.1601884,8.08630952 L107.017018,35.7041667 Z M181.015671,55.5041667 L163.633621,33.3797619 C165.83804,33.0130952 167.891847,32.4041667 169.774503,31.5202381 C171.664005,30.6494048 173.293358,29.5559524 174.669409,28.2333333 C176.045459,26.9172619 177.113438,25.3785714 177.866501,23.597619 C178.619563,21.810119 178.996095,19.7934524 178.996095,17.5214286 C178.996095,15.1053571 178.510027,12.8988095 177.537892,10.914881 C176.572603,8.91785714 175.196552,7.22857143 173.416587,5.8077381 C171.636621,4.38690476 169.493816,3.28690476 166.988172,2.51428571 C164.482528,1.74821429 161.661967,1.36190476 158.533334,1.36190476 L134.18888,1.36190476 L134.18888,55.5041667 L140.583064,55.5041667 L140.583064,34.4666667 L156.753369,34.4666667 L173.176976,55.5041667 L181.015671,55.5041667 Z M172.526604,17.7505952 C172.526604,19.5119048 172.163764,21.0833333 171.43124,22.4779762 C170.705562,23.8660714 169.692351,25.0446429 168.405298,25.9940476 C167.1114,26.95 165.571045,27.6833333 163.791079,28.2005952 C162.011114,28.7178571 160.073689,28.9666667 157.965115,28.9666667 L140.583064,28.9666667 L140.583064,6.99940476 L158.054113,6.99940476 C162.634102,6.99940476 166.194033,7.9422619 168.727061,9.82797619 C171.26009,11.7136905 172.526604,14.3458333 172.526604,17.7505952 Z M215.553853,25.025 L239.816155,1.36190476 L231.566698,1.36190476 L199.054939,33.6940476 L199.054939,1.36190476 L192.660755,1.36190476 L192.660755,55.5041667 L199.054939,55.5041667 L199.054939,40.9553571 L211.110784,29.2875 L232.860597,55.5041667 L240.863597,55.5041667 L215.553853,25.025 Z M291.736387,1.36190476 L250.810867,1.36190476 L250.810867,55.5041667 L292.140302,55.5041667 L292.140302,49.9386905 L257.205051,49.9386905 L257.205051,30.9767857 L288.094303,30.9767857 L288.094303,25.4113095 L257.205051,25.4113095 L257.205051,6.92738095 L291.736387,6.92738095 L291.736387,1.36190476 Z M326.432027,6.99940476 L345.436585,6.99940476 L345.436585,1.36190476 L300.964825,1.36190476 L300.964825,6.99940476 L319.962536,6.99940476 L319.962536,55.5041667 L326.432027,55.5041667 L326.432027,6.99940476 Z M357.971651,55.5041667 L364.365836,55.5041667 L364.365836,1.36190476 L357.971651,1.36190476 L357.971651,55.5041667 Z M422.591254,44.7529762 L386.923479,1.36190476 L380.940055,1.36190476 L380.940055,55.5041667 L387.169935,55.5041667 L387.169935,11.0982143 L423.720848,55.5041667 L428.814288,55.5041667 L428.814288,1.36190476 L422.591254,1.36190476 L422.591254,44.7529762 Z M493.837806,48.1577381 L493.837806,26.5767857 L470.465487,26.5767857 L470.465487,32.0702381 L487.690078,32.0702381 L487.690078,45.5255952 C485.752654,47.025 483.3497,48.2952381 480.494909,49.3559524 C477.633272,50.410119 474.593638,50.9339286 471.35547,50.9339286 C467.905074,50.9339286 464.803826,50.3708333 462.051726,49.2380952 C459.306471,48.1053571 456.958285,46.527381 455.020861,44.5107143 C453.07659,42.5071429 451.584158,40.1172619 450.52987,37.3672619 C449.482429,34.6107143 448.955285,31.6053571 448.955285,28.3511905 C448.955285,25.3130952 449.496121,22.4321429 450.570946,19.7345238 C451.652618,17.0238095 453.131359,14.660119 455.020861,12.6565476 C456.903517,10.639881 459.16955,9.03571429 461.812115,7.85714286 C464.454679,6.67202381 467.336855,6.07619048 470.465487,6.07619048 C472.457679,6.07619048 474.278721,6.23333333 475.928612,6.54107143 C477.571658,6.84880952 479.077783,7.27440476 480.453833,7.81130952 C481.829883,8.3547619 483.11009,8.99642857 484.294451,9.74940476 C485.478813,10.502381 486.615253,11.3339286 487.690078,12.2636905 L491.81823,7.62797619 C490.414795,6.48869048 488.970285,5.4672619 487.491544,4.56369048 C486.005957,3.66666667 484.41768,2.90059524 482.719866,2.28511905 C481.022053,1.66309524 479.187319,1.2047619 477.222511,0.89702381 C475.250856,0.582738095 473.080667,0.425595238 470.705097,0.425595238 C466.446872,0.425595238 462.578869,1.19166667 459.10109,2.7172619 C455.623311,4.23630952 452.645291,6.28571429 450.167031,8.86547619 C447.688771,11.4452381 445.758193,14.4309524 444.388988,17.8357143 C443.019784,21.2404762 442.32149,24.7958333 442.32149,28.5083333 C442.32149,32.3714286 442.985554,36.0053571 444.306836,39.4166667 C445.628118,42.8214286 447.538159,45.7809524 450.043803,48.3083333 C452.556293,50.8357143 455.575389,52.8130952 459.10109,54.260119 C462.633637,55.7071429 466.63856,56.427381 471.115859,56.427381 C475.91492,56.427381 480.241606,55.6154762 484.095917,53.9916667 C487.950227,52.3678571 491.195242,50.4232143 493.837806,48.1577381 Z" id="Fill-4" fill="#6FBFAB"></path>
                <path d="M25.9532699,94.4428571 L23.817311,92.4392857 C22.4549526,93.6964286 21.0652101,94.6720238 19.6412375,95.3595238 C18.2241109,96.0535714 16.5331434,96.4005952 14.5614891,96.4005952 C12.980058,96.4005952 11.5150092,96.1125 10.1594968,95.5232143 C8.81083048,94.927381 7.63331467,94.1285714 6.64064146,93.1136905 C5.64112223,92.0857143 4.86752173,90.8940476 4.30614792,89.5059524 C3.7447741,88.1244048 3.4640872,86.6315476 3.4640872,85.0339286 C3.4640872,83.4428571 3.7447741,81.9696429 4.30614792,80.5946429 C4.86752173,79.2261905 5.64112223,78.0214286 6.64064146,77.0130952 C7.63331467,75.985119 8.81083048,75.1928571 10.1594968,74.6232143 C11.5150092,74.0470238 12.980058,73.7589286 14.5614891,73.7589286 C16.5331434,73.7589286 18.2172649,74.1059524 19.6206994,74.8196429 C21.03098,75.5136905 22.3454162,76.4238095 23.5708542,77.5238095 L25.7889654,75.2386905 C25.0769791,74.5970238 24.3376087,74.0011905 23.5708542,73.4708333 C22.8109457,72.9339286 21.975731,72.4690476 21.0789021,72.0958333 C20.1752272,71.7095238 19.196246,71.414881 18.1488047,71.2184524 C17.0945173,71.0089286 15.9170014,70.897619 14.6025652,70.897619 C12.5008364,70.897619 10.5634121,71.2708333 8.79029241,72.0107143 C7.01717268,72.7571429 5.48366372,73.7785714 4.20345759,75.075 C2.91640543,76.3583333 1.9168862,77.877381 1.19120785,79.5928571 C0.465529505,81.3214286 0.102690332,83.1547619 0.102690332,85.1125 C0.102690332,87.1095238 0.465529505,88.9559524 1.19120785,90.6845238 C1.9168862,92.4 2.91640543,93.8994048 4.20345759,95.1630952 C5.48366372,96.4333333 7.00348064,97.435119 8.74921628,98.1553571 C10.4949519,98.8952381 12.4049921,99.2553571 14.4793368,99.2553571 C15.7937731,99.2553571 16.9781349,99.1440476 18.0461143,98.9017857 C19.1072478,98.6660714 20.106767,98.3452381 21.037826,97.9261905 C21.962039,97.5136905 22.8314838,97.0029762 23.6324684,96.4202381 C24.440299,95.8375 25.2138995,95.1696429 25.9532699,94.4428571 Z M83.3913955,85.0339286 C83.3913955,83.1285714 83.0422484,81.3279762 82.3439542,79.6125 C81.6525059,77.9035714 80.6598327,76.4041667 79.3796266,75.1142857 C78.0925744,73.8113095 76.5590655,72.789881 74.7654077,72.0369048 C72.9785959,71.277381 70.9932495,70.897619 68.8093684,70.897619 C66.6254874,70.897619 64.6332949,71.2904762 62.8327911,72.0565476 C61.0254413,72.822619 59.4850863,73.8571429 58.1980341,75.1732143 C56.917828,76.4761905 55.9183087,77.9821429 55.2131685,79.697619 C54.5011822,81.4065476 54.145189,83.2136905 54.145189,85.1125 C54.145189,87.0178571 54.4943361,88.8315476 55.1926304,90.5404762 C55.8840786,92.2559524 56.8767518,93.7488095 58.163804,95.0517857 C59.4440101,96.3416667 60.9775191,97.3630952 62.7711769,98.1160714 C64.5579887,98.8821429 66.5433351,99.2553571 68.7272161,99.2553571 C70.9110972,99.2553571 72.9032896,98.8755952 74.7037935,98.1029762 C76.5111433,97.3303571 78.0514983,96.2958333 79.3317044,94.9928571 C80.6187566,93.6833333 81.6182758,92.1708333 82.3234161,90.4619048 C83.0354024,88.7595238 83.3913955,86.9392857 83.3913955,85.0339286 Z M80.0299987,85.1125 C80.0299987,86.6839286 79.7493118,88.1571429 79.187938,89.5255952 C78.6334102,90.9005952 77.8598097,92.0857143 76.8808285,93.1136905 C75.8950013,94.1285714 74.7174855,94.927381 73.334589,95.5232143 C71.9585386,96.1125 70.4455677,96.4005952 68.8093684,96.4005952 C67.1731691,96.4005952 65.6601982,96.1059524 64.2841478,95.5035714 C62.9012513,94.8946429 61.7100435,94.0827381 60.6968322,93.0744048 C59.6904669,92.0529762 58.9031744,90.8547619 58.3486466,89.460119 C57.7872728,88.0785714 57.5065859,86.6119048 57.5065859,85.0339286 C57.5065859,83.4690476 57.7872728,82.002381 58.3486466,80.627381 C58.9031744,79.2589286 59.6767749,78.0672619 60.6557561,77.052381 C61.6415832,76.0244048 62.8190991,75.2255952 64.2019955,74.6363095 C65.578046,74.0535714 67.0910169,73.7589286 68.7272161,73.7589286 C70.3634154,73.7589286 71.8763863,74.060119 73.2524368,74.6559524 C74.6353332,75.2517857 75.8265411,76.0636905 76.8397524,77.085119 C77.8461176,78.1065476 78.6334102,79.3047619 79.187938,80.6863095 C79.7493118,82.0744048 80.0299987,83.5541667 80.0299987,85.1125 Z M135.955153,93.3494048 L117.895347,71.3625 L114.862559,71.3625 L114.862559,98.7904762 L118.018575,98.7904762 L118.018575,76.2994048 L136.530219,98.7904762 L139.11117,98.7904762 L139.11117,71.3625 L135.955153,71.3625 L135.955153,93.3494048 Z M174.347646,78.2178571 C174.347646,77.602381 174.498258,77.0130952 174.778945,76.4630952 C175.066478,75.9130952 175.477239,75.4482143 176.004383,75.0553571 C176.545219,74.6559524 177.188745,74.3482143 177.934961,74.1059524 C178.688024,73.8702381 179.523238,73.7589286 180.454297,73.7589286 C181.926192,73.7589286 183.343319,73.9946429 184.691985,74.4595238 C186.047497,74.9309524 187.389318,75.6970238 188.731138,76.7380952 L190.613794,74.3482143 C189.135053,73.2285714 187.615236,72.3839286 186.047497,71.8208333 C184.472912,71.2577381 182.638178,70.9827381 180.53645,70.9827381 C179.174091,70.9827381 177.914423,71.1595238 176.771137,71.552381 C175.621006,71.9190476 174.621486,72.4428571 173.779426,73.1107143 C172.930519,73.7785714 172.273301,74.5708333 171.814617,75.4744048 C171.349088,76.397619 171.116323,77.3994048 171.116323,78.4928571 C171.116323,79.6452381 171.308012,80.6339286 171.691389,81.4720238 C172.074766,82.3035714 172.656678,83.0434524 173.457663,83.6654762 C174.244955,84.2940476 175.244474,84.8309524 176.463066,85.2696429 C177.674812,85.7214286 179.105631,86.1077381 180.74183,86.4482143 C182.241109,86.7690476 183.480239,87.0964286 184.445528,87.4303571 C185.417663,87.7642857 186.177572,88.1505952 186.725254,88.5630952 C187.266089,88.9886905 187.649467,89.4470238 187.868539,89.9511905 C188.087612,90.4619048 188.197148,91.0446429 188.197148,91.6994048 C188.197148,93.1136905 187.615236,94.2464286 186.451413,95.1041667 C185.294435,95.9619048 183.747234,96.4005952 181.80981,96.4005952 C179.810771,96.4005952 178.051344,96.0863095 176.524681,95.4380952 C174.991172,94.8029762 173.478201,93.827381 171.972076,92.5244048 L169.966191,94.7964286 C171.691389,96.2827381 173.498739,97.3827381 175.395087,98.1029762 C177.291435,98.8232143 179.393164,99.1767857 181.679735,99.1767857 C183.103708,99.1767857 184.411298,98.9934524 185.616198,98.6267857 C186.814252,98.2732143 187.848001,97.7494048 188.7106,97.0619048 C189.566353,96.3875 190.244109,95.5690476 190.737023,94.5934524 C191.22309,93.6375 191.469547,92.5636905 191.469547,91.385119 C191.469547,89.2767857 190.716484,87.6136905 189.203514,86.4089286 C187.683697,85.2107143 185.328665,84.2678571 182.131573,83.5934524 C180.550142,83.2791667 179.249397,82.9452381 178.243032,82.585119 C177.229821,82.2446429 176.442528,81.8517857 175.867462,81.4196429 C175.292397,80.9809524 174.895327,80.5095238 174.683101,79.9857143 C174.464028,79.4684524 174.347646,78.8791667 174.347646,78.2178571 Z M246.128188,71.3625 L242.890019,71.3625 L242.890019,87.3125 C242.890019,90.3178571 242.116419,92.5767857 240.555526,94.0827381 C239.001479,95.6083333 236.89975,96.3613095 234.250339,96.3613095 C231.491392,96.3613095 229.341741,95.5690476 227.801386,93.9714286 C226.254185,92.3738095 225.480585,90.0952381 225.480585,87.122619 L225.480585,71.3625 L222.249262,71.3625 L222.249262,87.3125 C222.249262,89.2505952 222.536795,90.9595238 223.111861,92.4392857 C223.680081,93.9321429 224.494758,95.1761905 225.549045,96.1845238 C226.596486,97.1928571 227.856155,97.952381 229.314357,98.4565476 C230.77256,98.9607143 232.395067,99.2160714 234.168187,99.2160714 C235.968691,99.2160714 237.598044,98.9607143 239.069939,98.4565476 C240.521295,97.952381 241.780964,97.1863095 242.828405,96.164881 C243.882692,95.1434524 244.690523,93.8797619 245.265589,92.3607143 C245.840655,90.8547619 246.128188,89.0869048 246.128188,87.0833333 L246.128188,71.3625 Z M278.420874,98.7904762 L297.795117,98.7904762 L297.795117,95.9291667 L281.652196,95.9291667 L281.652196,71.3625 L278.420874,71.3625 L278.420874,98.7904762 Z M335.160705,74.2303571 L344.786212,74.2303571 L344.786212,71.3625 L322.2628,71.3625 L322.2628,74.2303571 L331.888307,74.2303571 L331.888307,98.7904762 L335.160705,98.7904762 L335.160705,74.2303571 Z M375.771309,98.7904762 L379.009477,98.7904762 L379.009477,71.3625 L375.771309,71.3625 L375.771309,98.7904762 Z M433.127282,93.3494048 L415.074322,71.3625 L412.034688,71.3625 L412.034688,98.7904762 L415.190704,98.7904762 L415.190704,76.2994048 L433.702348,98.7904762 L436.283298,98.7904762 L436.283298,71.3625 L433.127282,71.3625 L433.127282,93.3494048 Z M493.844652,95.0714286 L493.844652,84.1434524 L482.00788,84.1434524 L482.00788,86.9130952 L490.736558,86.9130952 L490.736558,93.7357143 C489.750731,94.4952381 488.532139,95.1369048 487.087628,95.6738095 C485.643118,96.2041667 484.095917,96.472619 482.459717,96.472619 C480.713982,96.472619 479.139397,96.1845238 477.749654,95.6214286 C476.353066,95.0452381 475.168704,94.2464286 474.182877,93.225 C473.203896,92.2035714 472.443987,90.9988095 471.909997,89.6041667 C471.382854,88.2095238 471.115859,86.6839286 471.115859,85.0339286 C471.115859,83.5017857 471.3897,82.0416667 471.930535,80.6666667 C472.478217,79.2982143 473.23128,78.1065476 474.182877,77.085119 C475.14132,76.0636905 476.291452,75.2517857 477.626426,74.6559524 C478.968246,74.060119 480.426449,73.7589286 482.00788,73.7589286 C483.021091,73.7589286 483.938458,73.8309524 484.773673,73.9946429 C485.608888,74.1452381 486.368796,74.3613095 487.06709,74.6363095 C487.765385,74.9113095 488.408911,75.2386905 489.011361,75.6184524 C489.613811,75.9916667 490.188876,76.4238095 490.736558,76.8886905 L492.824595,74.5446429 C492.112609,73.9684524 491.380084,73.4577381 490.633868,72.9928571 C489.880805,72.5345238 489.072975,72.1547619 488.217222,71.8404762 C487.354623,71.5261905 486.423564,71.2904762 485.430891,71.1333333 C484.431372,70.9827381 483.336008,70.897619 482.131108,70.897619 C479.974611,70.897619 478.016649,71.2904762 476.257221,72.0565476 C474.490948,72.822619 472.984823,73.8571429 471.732001,75.1732143 C470.472333,76.4761905 469.493352,77.9821429 468.801903,79.7172619 C468.103609,81.4327381 467.754462,83.239881 467.754462,85.1125 C467.754462,87.0833333 468.089917,88.910119 468.760827,90.6452381 C469.424891,92.3607143 470.397026,93.8666667 471.663541,95.1434524 C472.936901,96.4267857 474.463564,97.435119 476.257221,98.1553571 C478.044033,98.8952381 480.070456,99.2553571 482.336489,99.2553571 C484.766827,99.2553571 486.957554,98.8494048 488.90867,98.0309524 C490.866633,97.2059524 492.509678,96.2107143 493.844652,95.0714286 Z" id="Fill-5" fill="#ffffff"></path>
            </g>
        </g>
    </g>
</svg>