<?xml version="1.0" encoding="UTF-8"?>
<svg width="140px" height="140px" viewBox="0 0 140 140" version="1.1" xmlns="http://www.w3.org/2000/svg" xmlns:xlink="http://www.w3.org/1999/xlink">
    <!-- Generator: Sketch 48.2 (47327) - http://www.bohemiancoding.com/sketch -->
    <title>engage_icon_lg</title>
    <desc>Created with Sketch.</desc>
    <defs></defs>
    <g id="Page-1" stroke="none" stroke-width="1" fill="none" fill-rule="evenodd">
        <g id="engage_icon_lg">
            <g id="noun_540620_cc">
                <g id="Group">
                    <circle id="Oval" fill="#4FC2AA" cx="70" cy="70" r="70"></circle>
                    <path d="M49.2333333,91.4083333 L47.0983333,89.8333333 C47.0282098,90.6525752 46.7856852,91.4477378 46.3866667,92.1666667 C46.2933333,92.3222222 46.2,92.4622222 46.1066667,92.5866667 L48.02,94.01 L48.37,94.2666667 C48.51,94.0683333 48.6383333,93.87 48.7666667,93.6716667 C49.1446762,93.0523225 49.4278154,92.3798669 49.6066667,91.6766667 L49.2333333,91.4083333 Z M63.5133333,102.013333 L61.8333333,100.73 C61.2372427,101.475664 60.533409,102.128382 59.745,102.666667 L62.0083333,104.346667 L62.09,104.416667 C62.8150203,103.804429 63.4721283,103.116031 64.05,102.363333 L63.5133333,102.013333 Z M103.985,92.9133333 C103.985,92.855 103.985,92.715 103.985,92.5283333 C103.985,92.3416667 103.985,91.9566667 103.985,91.7233333 C104.014956,91.0353131 103.920093,90.3475537 103.705,89.6933333 L103.32,88.9 C102.127737,86.8038636 100.51512,84.97676 98.5833333,83.5333333 L97.1366667,82.46 L101.126667,90.755 C101.126667,91.175 101.22,92.2483333 101.231667,92.6216667 C101.243333,92.995 101.231667,93.0066667 101.231667,93.135 C101.302421,93.8145529 101.091595,94.4934128 100.648333,95.0133333 C100.441312,95.2638973 100.215071,95.4979398 99.9716667,95.7133333 L99.8316667,95.8066667 C98.9072107,96.4545441 97.6761227,96.4545441 96.7516667,95.8066667 L78.1666667,80.99 C77.5588426,80.5417901 76.705919,80.6513472 76.2311017,81.2386212 C75.7562844,81.8258953 75.8277732,82.6828496 76.3933333,83.1833333 L90.3,94.3833333 C91.6908673,95.4995163 92.7416034,96.9826707 93.3333333,98.665 L93.4966667,99.1316667 C93.6348464,99.5360759 93.5408515,99.9836707 93.2516667,100.298333 L93.1466667,100.403333 C92.4261457,101.06509 91.4615459,101.395085 90.4866667,101.313333 C89.6743648,101.187587 88.9096867,100.849519 88.27,100.333333 L72.3333333,86.0883333 C71.7534343,85.5664243 70.8602425,85.6134344 70.3383334,86.1933334 C69.8164243,86.7732323 69.8634344,87.6664242 70.4433333,88.1883333 L83.5916667,100.111667 C83.7699767,100.268562 83.8961531,100.476143 83.9533333,100.706667 L83.9533333,100.846667 L84.63,102.771667 C84.6827903,103.333189 84.6513314,103.899448 84.5366667,104.451667 L84.3383333,104.871667 C84.1935855,105.18078 83.9207302,105.411002 83.5916667,105.501667 C82.0656774,105.920421 80.432799,105.473057 79.3333333,104.335 L70.07,95.0016667 C69.5191904,94.4727557 68.649143,94.4727557 68.0983333,95.0016667 C67.5414131,95.5235221 67.5050894,96.3952905 68.0166667,96.9616667 L75.6583333,105.548333 C75.9006198,105.796531 76.0199086,106.139664 75.9838334,106.484633 C75.9477583,106.829601 75.7600602,107.140632 75.4716667,107.333333 L75.32,107.438333 C73.4892058,107.386421 71.6845058,106.990654 70,106.271667 C69.1202707,105.906549 68.279856,105.453116 67.4916667,104.918333 C67.4398721,105.077758 67.3693813,105.230488 67.2816667,105.373333 C66.858223,106.063036 66.2580481,106.626959 65.5433333,107.006667 C68.5265153,109.114638 72.0872187,110.251293 75.74,110.261667 C76.0223899,110.257279 76.2976435,110.172274 76.5333333,110.016667 L77,109.666667 C77.7869294,109.123374 78.3602717,108.323169 78.6216667,107.403333 C80.3337731,108.463822 82.4141227,108.751935 84.35,108.196667 C85.4472048,107.879342 86.3586224,107.112055 86.8583333,106.085 L87.0566667,105.665 C87.3594329,104.892236 87.509972,104.068233 87.5,103.238333 C88.2671673,103.674257 89.1039403,103.974232 89.9733333,104.125 C91.8839185,104.357988 93.7961931,103.704806 95.165,102.351667 L95.27,102.235 C96.1257929,101.32283 96.4980909,100.058748 96.2733333,98.8283333 C97.9898175,99.4555906 99.9050341,99.1981925 101.395,98.14 L101.5,98 C101.93352,97.6584621 102.325129,97.2668537 102.666667,96.8333333 C103.620355,95.7599972 104.096289,94.3448315 103.985,92.9133333 Z M74.095,57.7266667 L74.095,57.7966667 L77.0466667,57.7966667 C77.2092435,57.7744351 77.3740898,57.7744351 77.5366667,57.7966667 L75.9966667,55.5333333 C75.7584508,55.1844251 75.3785906,54.9582161 74.9583333,54.915 L65.625,54.0866667 C65.0210822,54.0049924 64.4089178,54.0049924 63.805,54.0866667 L45.8033333,56.6883333 L44.6366667,56.8516667 L40.46,57.0033333 L43.2016667,58.45 C43.1316667,58.8816667 43.05,59.3016667 42.9683333,59.7333333 L44.8116667,59.7333333 L44.9633333,59.7333333 L45.8733333,59.605 L64.1666667,56.945 C64.5299512,56.8873738 64.9000488,56.8873738 65.2633333,56.945 L67.5383333,57.1433333 L74.095,57.7266667 Z M41.1716667,87.5 L38.8383333,86.7183333 C37.8353855,86.3773778 36.7920363,86.1694925 35.735,86.1 C35.4825344,86.0822345 35.2291323,86.0822345 34.9766667,86.1 L33.0516667,86.1 L33.6583333,84.1516667 C33.1216667,85.0461111 32.5616667,85.9327778 31.9783333,86.8116667 L30.0416667,86.2166667 L29.7966667,86.9866667 C29.6660863,87.4110525 29.7393183,87.8719829 29.995,88.235 C30.2612501,88.61303 30.6994926,88.8321513 31.1616667,88.8183333 L33.9966667,88.8183333 L34.9766667,88.8183333 C36.0044395,88.8314392 37.0238926,89.0046282 37.9983333,89.3316667 L39.6316667,89.88 L42.3266667,90.7783333 C42.4783333,90.4866667 42.6533333,90.1716667 42.8633333,89.845 C43.2715652,89.3380643 43.7699261,88.9108978 44.3333333,88.585 L41.1716667,87.5 Z M55.79,96.2616667 L54.5533333,95.34 C54.0128601,96.1156712 53.3779843,96.8210887 52.6633333,97.44 L54.9966667,99.1316667 C55.6719544,98.4748891 56.2887314,97.7605209 56.84,96.9966667 L55.79,96.2616667 Z" id="Shape" fill="#FFFFFF" fill-rule="nonzero"></path>
                    <path d="M111.673333,86.7533333 C111.323333,86.2283333 110.973333,85.6916667 110.646667,85.155 L109.211667,85.7383333 C108.758023,85.929547 108.432755,86.3383305 108.348333,86.8233333 C108.348333,86.8933333 108.348333,86.975 108.348333,87.045 C108.348354,88.0649493 107.524929,88.8935852 106.505,88.9 L103.238333,88.9 C102.04607,86.8038636 100.433453,84.97676 98.5016667,83.5333333 L97.055,82.46 L79.625,69.4983333 C77.6293282,68.0123897 75.2475264,67.1333914 72.765,66.9666667 L69.4633333,66.7333333 C69.0722237,66.699315 68.6854023,66.8353401 68.4016667,67.1066667 C68.1133792,67.3704021 67.9484224,67.7426123 67.9466667,68.1333333 C67.9479744,72.5673265 64.4110189,76.1923175 59.9783333,76.3 L59.5,76.3 C57.995,75.4716667 57.855,74.9 57.8433333,74.83 C57.826141,74.7729334 57.826141,74.7120666 57.8433333,74.655 C57.9404271,74.5718563 58.0231967,74.473321 58.0883333,74.3633333 L59.255,72.59 C60.1505998,70.7244906 60.7414257,68.7274992 61.005,66.675 C61.3397864,65.155099 62.2680554,63.8320006 63.5833333,63 L71.3066667,58.0883333 C71.6565664,57.8719246 72.0620622,57.7624408 72.4733333,57.7733333 L77.14,57.7733333 C77.3025768,57.7511018 77.4674232,57.7511018 77.63,57.7733333 C77.7664087,57.801887 77.899383,57.8449081 78.0266667,57.9016667 L85.75,60.6666667 C87.9628806,61.4226836 90.2832648,61.8166368 92.6216667,61.8333333 C94.4553516,61.8576137 96.2862046,61.6815702 98.0816667,61.3083333 C99.0069236,61.146312 99.9222747,60.9320809 100.823333,60.6666667 C100.671667,59.9433333 100.543333,59.2083333 100.415,58.485 L103.716667,56.7466667 C103.506966,56.7211315 103.294214,56.7492307 103.098333,56.8283333 L101.371667,57.4933333 C100.14361,57.9903398 98.8750346,58.3806707 97.58,58.66 C95.9575806,59.0003413 94.3025808,59.160755 92.645,59.1383333 C90.6063072,59.1042317 88.5860352,58.7458598 86.66,58.0766667 L78.9716667,55.44 C78.376205,55.1932239 77.7379053,55.0663569 77.0933333,55.0666667 L72.4266667,55.0666667 C71.4974635,55.0654373 70.5870645,55.3284415 69.8016667,55.825 L67.5733333,57.1666667 L62.0783333,60.6666667 C60.1179323,61.9001107 58.7318006,63.8658975 58.2283333,66.1266667 C58.2228692,66.1614534 58.2228692,66.1968799 58.2283333,66.2316667 C58.0214972,67.9190812 57.5654195,69.5664653 56.875,71.12 L55.8366667,72.7766667 C55.2512484,73.4456654 54.9795551,74.332914 55.09,75.215 C55.2766667,76.6266667 56.4316667,77.8983333 58.5083333,78.9716667 C58.667758,79.0556052 58.8422229,79.1071517 59.0216667,79.1233333 C59.0216667,79.1233333 59.4066667,79.1233333 60.0366667,79.1233333 C65.4352491,79.007798 69.9501039,74.9874509 70.6883333,69.6383333 L72.59,69.7783333 C74.536242,69.9082937 76.403677,70.5969357 77.9683333,71.7616667 L96.8333333,85.7966667 C98.6021042,87.1187241 100.046429,88.8263792 101.056667,90.79 C101.088394,90.8379969 101.115727,90.8887582 101.138333,90.9416667 C101.374548,91.4215065 101.863505,91.7248409 102.398333,91.7233333 L106.516667,91.7233333 C108.088267,91.7204938 109.552884,90.9267942 110.413333,89.6116667 C110.735882,89.1352158 110.961816,88.6001088 111.078333,88.0366667 L114.333333,86.6833333 C114.735099,86.5241082 115.04081,86.1882572 115.161667,85.7733333 L111.673333,86.7533333 Z" id="Shape" fill="#FFFFFF" fill-rule="nonzero"></path>
                    <path d="M45.8033333,56.6883333 C45.6996809,56.5863161 45.5817886,56.4998618 45.4533333,56.4316667 L35,50.9483333 C34.6484202,50.7570931 34.2314131,50.7268823 33.8559398,50.8654498 C33.4804665,51.0040174 33.1830585,51.2978814 33.04,51.6716667 L19.9383333,84.7116667 C19.7685774,85.0820303 19.7685774,85.5079697 19.9383333,85.8783333 C20.1182953,86.2363914 20.4397814,86.5028865 20.825,86.6133333 L32.1533333,89.775 C32.7330947,89.9250815 33.3453934,89.7024274 33.6933333,89.215 L33.9033333,88.9 C34.5216667,88.0016667 35.07,87.08 35.6883333,86.1466667 C40.7449071,77.9884134 44.2125382,68.9472384 45.9083333,59.5 C46.0133333,58.9516667 46.1066667,58.415 46.1883333,57.8666667 C46.24331,57.4360173 46.1019743,57.0034443 45.8033333,56.6883333 Z M33.6583333,84.0933333 C33.1216667,84.9877778 32.5616667,85.8744444 31.9783333,86.7533333 L30.0416667,86.2166667 L23.135,84.2916667 L35.1283333,54.1683333 L40.495,57.0033333 L43.2366667,58.45 C43.1666667,58.8816667 43.085,59.3016667 43.0033333,59.7333333 C41.3698964,68.3467652 38.2047845,76.597394 33.6583333,84.0933333 Z" id="Shape" fill="#FFFFFF" fill-rule="nonzero"></path>
                    <path d="M123.666667,84.7116667 L110.565,51.6716667 C110.421942,51.2978814 110.124534,51.0040174 109.74906,50.8654498 C109.373587,50.7268823 108.95658,50.7570931 108.605,50.9483333 L98.1983333,56.4316667 C97.6639484,56.7138377 97.3684392,57.3048561 97.4633333,57.9016667 C97.4633333,58.1233333 97.5333333,58.345 97.58,58.5666667 C97.72,59.5 97.895,60.4216667 98.0816667,61.3433333 C99.9366476,70.3871048 103.415063,79.0198985 108.348333,86.8233333 C108.85,87.6283333 109.375,88.41 109.911667,89.1566667 C110.032536,89.3352989 110.197236,89.4799139 110.39,89.5766667 C110.59745,89.7020887 110.83594,89.7667639 111.078333,89.7633333 C111.202238,89.7797247 111.327762,89.7797247 111.451667,89.7633333 L122.78,86.6016667 C123.165219,86.4912198 123.486705,86.2247247 123.666667,85.8666667 C123.832879,85.499606 123.832879,85.0787273 123.666667,84.7116667 Z M115.138333,85.7733333 L111.638333,86.7533333 C111.288333,86.2283333 110.938333,85.6916667 110.611667,85.155 C105.87959,77.6511008 102.551035,69.3494772 100.788333,60.655 C100.636667,59.9316667 100.508333,59.1966667 100.38,58.4733333 L103.681667,56.735 L108.5,54.1683333 L120.516667,84.2916667 L115.138333,85.7733333 Z" id="Shape" fill="#FFFFFF" fill-rule="nonzero"></path>
                    <path d="M68.3666667,98.84 C67.7810528,98.4683949 67.1106497,98.2516178 66.4183333,98.21 C65.4047548,98.1524446 64.3931559,98.3531587 63.4783333,98.7933333 L62.9183333,99.0733333 C62.8483333,99.2016667 62.79,99.3183333 62.72,99.4233333 C62.4334204,99.8758999 62.1218255,100.312133 61.7866667,100.73 C61.2047929,101.472209 60.5168686,102.124754 59.745,102.666667 L59.6283333,102.748333 C59.1021123,103.807364 58.8646743,104.986505 58.94,106.166667 C59.0734575,107.505371 59.8300149,108.702893 60.9816667,109.398333 C61.8559291,109.944854 62.8673193,110.232089 63.8983333,110.226667 C65.0179399,110.216312 66.1155786,109.914763 67.0833333,109.351667 C67.4992867,109.124843 67.8903129,108.855035 68.25,108.546667 C68.8156877,108.064334 69.3036402,107.49768 69.6966667,106.866667 C69.8100284,106.678842 69.9113436,106.484005 70,106.283333 C70.3872372,105.316818 70.5622986,104.278385 70.5133333,103.238333 C70.6031712,101.500331 69.7920754,99.8384659 68.3666667,98.84 Z M67.2816667,105.385 C66.858223,106.074703 66.2580481,106.638626 65.5433333,107.018333 C64.6016341,107.579217 63.4283659,107.579217 62.4866667,107.018333 C61.74,106.54 61.5533333,105.723333 61.9383333,104.568333 L62.0083333,104.37 C62.2575993,103.774951 62.562274,103.204662 62.9183333,102.666667 C63.0800363,102.4282 63.2812595,102.219085 63.5133333,102.048333 C63.87941,101.792112 64.2702536,101.57324 64.68,101.395 L64.9133333,101.301667 C65.2811692,101.139027 65.677869,101.051753 66.08,101.045 C66.3683996,101.034387 66.6532122,101.111693 66.8966667,101.266667 C67.4680635,101.772966 67.7556411,102.526768 67.6666667,103.285 L67.6666667,103.448333 C67.6806032,103.949671 67.613633,104.449977 67.4683333,104.93 C67.4239448,105.088385 67.3613025,105.241076 67.2816667,105.385 Z" id="Shape" fill="#FFFFFF" fill-rule="nonzero"></path>
                    <path d="M64.1666667,89.9966667 C62.4676016,88.9755251 60.3839918,88.8239111 58.555,89.5883333 C58.0516329,89.7858304 57.5706134,90.036117 57.12,90.335 C56.7733829,90.5732872 56.4492583,90.8427402 56.1516667,91.14 C56.2553354,91.3952053 56.3297003,91.6613534 56.3733333,91.9333333 C56.4666667,92.47 56.1516667,92.9716667 55.5333333,93.8816667 L55.0666667,94.5933333 C54.9051601,94.8589449 54.7299225,95.11596 54.5416667,95.3633333 C54.0011934,96.1390046 53.3663177,96.844422 52.6516667,97.4633333 C52.5408056,97.5637009 52.4239216,97.6572081 52.3016667,97.7433333 C52.1124411,98.5928331 52.0417698,99.4644453 52.0916667,100.333333 C52.1015393,100.579951 52.1288295,100.825563 52.1733333,101.068333 C52.3373073,102.896321 53.313879,104.553923 54.8333333,105.583333 C55.6375048,106.099645 56.5726833,106.374936 57.5283333,106.376667 C58.0060613,106.368868 58.480688,106.298262 58.94,106.166667 C59.5100259,106.013921 60.0587238,105.790523 60.5733333,105.501667 C61.0555799,105.232407 61.5124464,104.920019 61.9383333,104.568333 C61.993994,104.531982 62.0449375,104.488876 62.09,104.44 C62.8150203,103.827763 63.4721283,103.139364 64.05,102.386667 C64.3455556,102.028889 64.6255556,101.64 64.89,101.22 L65.1116667,100.881667 C65.6217285,100.013293 66.0587863,99.104057 66.4183333,98.1633333 C66.6396891,97.6178933 66.8039002,97.0509739 66.9083333,96.4716667 C67.3511325,93.9615422 66.2773497,91.425587 64.1666667,89.9966667 Z M59.6166667,102.83 C59.4820864,102.927657 59.3418409,103.017258 59.1966667,103.098333 C58.3740131,103.712452 57.2601772,103.763291 56.385,103.226667 C55.4277617,102.525537 54.8708586,101.403029 54.8916667,100.216667 C54.8686078,99.9020887 54.8686078,99.5862447 54.8916667,99.2716667 C54.8866566,99.2407573 54.8866566,99.2092427 54.8916667,99.1783333 C55.0016643,98.1784382 55.2901206,97.20638 55.7433333,96.3083333 C55.898518,95.9925073 56.0698557,95.6848781 56.2566667,95.3866667 C56.9011034,94.3879222 57.6870721,93.487988 58.59,92.715 C58.7558923,92.6053065 58.9272219,92.5040663 59.1033333,92.4116667 C59.6681901,92.1129225 60.2960572,91.9529564 60.935,91.945 C61.5170059,91.9375899 62.088586,92.0997403 62.58,92.4116667 C63.8086543,93.2152107 64.4343301,94.678188 64.1666667,96.1216667 C64.0439948,96.676961 63.860092,97.2169309 63.6183333,97.7316667 C63.4309446,98.1930587 63.2126722,98.6412967 62.965,99.0733333 C62.895,99.2016667 62.8366667,99.3183333 62.7666667,99.4233333 C62.480087,99.8758999 62.1684921,100.312133 61.8333333,100.73 C61.2372427,101.475664 60.533409,102.128382 59.745,102.666667 L59.6166667,102.83 Z" id="Shape" fill="#FFFFFF" fill-rule="nonzero"></path>
                    <path d="M49.665,87.7916667 C49.5264068,87.4241638 49.3294317,87.0814271 49.0816667,86.7766667 C48.136352,85.5332739 46.5660428,84.9359229 45.0333333,85.2366667 C43.5666612,85.6689355 42.2364869,86.4726662 41.1716667,87.57 C40.889429,87.8357833 40.6388757,88.1333154 40.425,88.4566667 C40.1075348,88.9527121 39.8267855,89.4713185 39.585,90.0083333 C39.1591737,90.8619049 38.8979522,91.7880537 38.815,92.7383333 C38.6837603,94.3389427 39.464191,95.8772482 40.8333333,96.7166667 C42.0380062,97.5049052 43.5469345,97.6696732 44.8933333,97.16 L45.395,96.9383333 C46.2941644,96.4649103 47.0879482,95.8140075 47.7283333,95.025 C47.939275,94.7864249 48.1378681,94.53721 48.3233333,94.2783333 C48.4633333,94.08 48.5916667,93.8816667 48.72,93.6833333 C49.3238455,92.6541329 49.7201995,91.516597 49.8866667,90.335 C50.0166031,89.4816741 49.9406008,88.6096476 49.665,87.7916667 Z M47.1216667,89.46 C47.1216667,89.5766667 47.1216667,89.705 47.1216667,89.8333333 C47.0515431,90.6525752 46.8090186,91.4477378 46.41,92.1666667 C46.3166667,92.3222222 46.2233333,92.4622222 46.13,92.5866667 C45.8586476,92.9737476 45.5499445,93.33325 45.2083333,93.66 C44.9129131,93.957436 44.5747409,94.209099 44.205,94.4066667 C43.6357709,94.7256806 42.9348231,94.6940249 42.3966667,94.325 C41.8700937,94.0352537 41.5775199,93.4501061 41.6616667,92.855 C41.7438394,92.1509234 41.9617496,91.4694588 42.3033333,90.8483333 C42.455,90.5566667 42.63,90.2416667 42.84,89.915 C43.2486036,89.3806737 43.7554529,88.9292611 44.3333333,88.585 C44.692125,88.3383334 45.0852116,88.1457209 45.5,88.0133333 C45.5852027,88.0023451 45.6714639,88.0023451 45.7566667,88.0133333 C46.2747785,88.0250194 46.7350129,88.3471835 46.9233333,88.83 C46.9907248,89.037021 47.022289,89.2540254 47.0166667,89.4716667 L47.1216667,89.46 Z" id="Shape" fill="#FFFFFF" fill-rule="nonzero"></path>
                    <path d="M59.1733333,91.49 C59.0724922,90.8281244 58.8677476,90.1863288 58.5666667,89.5883333 C58.013154,88.4426398 57.1478273,87.4762235 56.07,86.8 C54.4140094,85.7513476 52.3880546,85.4625323 50.505,86.0066667 C49.9826844,86.1627996 49.4981586,86.4249202 49.0816667,86.7766667 C48.4297234,87.3802355 47.8852804,88.0903785 47.4716667,88.8766667 L47.1216667,89.4483333 C47.1216667,89.565 47.1216667,89.6933333 47.1216667,89.8216667 C47.0515431,90.6409085 46.8090186,91.4360711 46.41,92.155 C46.3166667,92.3105556 46.2233333,92.4505556 46.13,92.575 C45.8586476,92.9620809 45.5499445,93.3215833 45.2083333,93.6483333 C45.0262147,94.2798381 44.9127802,94.929153 44.87,95.585 C44.8316189,96.103596 44.8590593,96.6249648 44.9516667,97.1366667 C45.3183103,99.6202261 47.434707,101.469601 49.945,101.5 C50.7109889,101.490208 51.4677824,101.331717 52.1733333,101.033333 C52.7600141,100.787791 53.316004,100.474557 53.83,100.1 C54.2119159,99.8211037 54.578036,99.5211968 54.9266667,99.2016667 C55.6019544,98.5448891 56.2187314,97.8305209 56.77,97.0666667 C56.98,96.7633333 57.2016667,96.4483333 57.4116667,96.11 L57.8316667,95.4683333 C58.5374571,94.5830008 58.9891364,93.5223609 59.1383333,92.4 C59.191388,92.0996761 59.2031636,91.7935118 59.1733333,91.49 Z M52.3133333,97.7433333 C51.1466667,98.6766667 49.8166667,99.0383333 48.755,98.3733333 C47.9012613,97.8101674 47.4725749,96.7868517 47.67,95.7833333 C47.6836343,95.5280547 47.7187586,95.2743792 47.775,95.025 C47.8330387,94.6852244 47.9149074,94.3499524 48.02,94.0216667 C48.3111419,93.1101271 48.7024196,92.2336652 49.1866667,91.4083333 L49.4083333,91.035 C49.5716667,90.8016667 49.7,90.5566667 49.84,90.335 C49.84,90.335 49.84,90.335 49.84,90.335 C50.4,89.39 50.715,88.8883333 51.24,88.7366667 C51.5998908,88.6302164 51.9730341,88.5752268 52.3483333,88.5733333 C53.1121063,88.5802963 53.8590781,88.7983313 54.5066667,89.2033333 C55.2390298,89.6647712 55.80035,90.3531055 56.105,91.1633333 C56.2086687,91.4185386 56.2830336,91.6846867 56.3266667,91.9566667 C56.42,92.4933333 56.105,92.995 55.4866667,93.905 L55.02,94.6166667 C54.8584935,94.8822782 54.6832559,95.1392933 54.495,95.3866667 C53.9545267,96.1623379 53.319651,96.8677554 52.605,97.4866667 C52.5123714,97.5773051 52.4150132,97.6629804 52.3133333,97.7433333 Z" id="Shape" fill="#FFFFFF" fill-rule="nonzero"></path>
                    <path d="M52.605,48.7783333 C52.1377441,48.7780052 51.7009234,48.5464902 51.4383333,48.16 L44.205,37.59 C43.7988173,36.9465618 43.9756973,36.0969718 44.6049211,35.6690996 C45.2341449,35.2412275 46.0892687,35.3890548 46.5383333,36.0033333 L53.7716667,46.5733333 C54.0653945,47.0056527 54.0962185,47.5648829 53.8517835,48.0268652 C53.6073484,48.4888474 53.1276624,48.7779664 52.605,48.7783333 Z" id="Shape" fill="#FFFFFF" fill-rule="nonzero"></path>
                    <path d="M64.7966667,46.4216667 C64.112264,46.4207403 63.5271134,45.9290172 63.4083333,45.255 L60.165,24.9666667 C60.081638,24.4602427 60.2747823,23.9478145 60.6716774,23.622409 C61.0685724,23.2970034 61.6089204,23.2080572 62.0891774,23.3890756 C62.5694344,23.570094 62.916638,23.993576 63,24.5 L66.2433333,44.7766667 C66.3039287,45.1464579 66.2150116,45.5251686 65.9961745,45.8293522 C65.7773374,46.1335358 65.4465383,46.3382306 65.0766667,46.3983333 L64.7966667,46.4216667 Z" id="Shape" fill="#FFFFFF" fill-rule="nonzero"></path>
                    <path d="M88.3882165,48.0268652 C88.1437815,47.5648829 88.1746055,47.0056527 88.4683333,46.5733333 L95.6666667,35.9916667 C95.9420126,35.5554883 96.4333368,35.3042152 96.9481555,35.3362872 C97.4629742,35.3683592 97.919313,35.6786696 98.1383942,36.1456495 C98.3574755,36.6126295 98.304415,37.161922 98,37.5783333 L90.7666667,48.1483333 C90.5137251,48.5292047 90.0919864,48.763987 89.635,48.7783333 C89.1123376,48.7779664 88.6326516,48.4888474 88.3882165,48.0268652 Z" id="Shape" fill="#FFFFFF" fill-rule="nonzero"></path>
                    <path d="M77.4316667,46.4216667 L77.21,46.4216667 C76.8401284,46.3615639 76.5093293,46.1568691 76.2904922,45.8526855 C76.071655,45.5485019 75.982738,45.1697912 76.0433333,44.8 L79.3333333,24.5 C79.4557565,23.730023 80.1791897,23.2050769 80.9491667,23.3275 C81.7191437,23.4499231 82.2440898,24.1733563 82.1216667,24.9433333 L78.8316667,45.2433333 C78.7172085,45.9263441 78.124191,46.4254672 77.4316667,46.4216667 Z" id="Shape" fill="#FFFFFF" fill-rule="nonzero"></path>
                </g>
            </g>
        </g>
    </g>
</svg>