<svg xmlns="http://www.w3.org/2000/svg" xmlns:xlink="http://www.w3.org/1999/xlink" version="1.1" x="0px" y="0px" viewBox="0 0 100 125" enable-background="new 0 0 100 100" xml:space="preserve"><g><g><path d="M50,5.25c-24.853,0-45,20.147-45,45s20.147,45,45,45c24.853,0,45-20.147,45-45S74.853,5.25,50,5.25z M50,88.665    c-21.216,0-38.415-17.199-38.415-38.415S28.784,11.835,50,11.835S88.415,29.034,88.415,50.25S71.216,88.665,50,88.665z"/></g></g><g><g><path d="M50,80.553c-16.709,0-30.303-13.594-30.303-30.303S33.291,19.947,50,19.947S80.303,33.541,80.303,50.25    S66.709,80.553,50,80.553z M50,20.947c-16.158,0-29.303,13.145-29.303,29.303S33.842,79.553,50,79.553S79.303,66.408,79.303,50.25    S66.158,20.947,50,20.947z"/></g></g><g><g><path d="M50,26.269c-13.245,0-23.982,10.736-23.982,23.981S36.755,74.231,50,74.231c13.245,0,23.982-10.736,23.982-23.981    S63.245,26.269,50,26.269z M38.645,49.243l-8.072-0.716c0.214-2.453,0.887-4.772,1.924-6.88l7.064,4.021    C39.074,46.778,38.755,47.98,38.645,49.243z M40.732,43.614l-7.065-4.021c3.186-4.873,8.492-8.234,14.612-8.771l0.715,8.072    C45.59,39.192,42.616,40.986,40.732,43.614z M60.49,60.74c-0.991,0.99-2.318,1.27-2.966,0.623    c-0.646-0.647-0.368-1.975,0.623-2.966s2.318-1.27,2.965-0.623C61.76,58.422,61.481,59.749,60.49,60.74z M51.013,28.295    c-12.686,0-22.969,10.283-22.969,22.968c0,6.085,2.371,11.613,6.233,15.723c-4.458-4.189-7.246-10.135-7.246-16.735    c0-12.686,10.284-22.969,22.969-22.969c6.601,0,12.546,2.788,16.736,7.246C62.626,30.665,57.098,28.295,51.013,28.295z"/></g></g><text x="0" y="115" fill="#000000" font-size="5px" font-weight="bold" font-family="'Helvetica Neue', Helvetica, Arial-Unicode, Arial, Sans-serif">Created by Dima Lagunov</text><text x="0" y="120" fill="#000000" font-size="5px" font-weight="bold" font-family="'Helvetica Neue', Helvetica, Arial-Unicode, Arial, Sans-serif">from the Noun Project</text></svg>