<?xml version="1.0" encoding="UTF-8"?>
<svg width="150px" height="156px" viewBox="0 0 150 156" version="1.1" xmlns="http://www.w3.org/2000/svg" xmlns:xlink="http://www.w3.org/1999/xlink">
    <!-- Generator: Sketch 48.2 (47327) - http://www.bohemiancoding.com/sketch -->
    <title>LG logo</title>
    <desc>Created with Sketch.</desc>
    <defs>
        <linearGradient x1="50%" y1="0%" x2="50%" y2="100%" id="linearGradient-1">
            <stop stop-color="#666666" offset="0%"></stop>
            <stop stop-color="#000000" stop-opacity="0.5" offset="100%"></stop>
        </linearGradient>
        <ellipse id="path-2" cx="74.8546512" cy="79.783793" rx="74.8546512" ry="75.2247191"></ellipse>
        <linearGradient x1="50%" y1="0%" x2="50%" y2="100%" id="linearGradient-3">
            <stop stop-color="#FFFFFF" stop-opacity="0.5" offset="0%"></stop>
            <stop stop-color="#000000" stop-opacity="0.5" offset="100%"></stop>
        </linearGradient>
        <path d="M51.0947547,88.2332899 C50.9007225,88.4783492 50.6149035,88.6323829 50.3044198,88.6592176 C49.6803242,88.7131574 49.1308831,88.2484535 49.0772087,87.6212725 L49.0772437,87.6212695 C47.6462992,70.9007933 49.1612688,55.6420239 53.6221524,41.8449614 C60.6871681,19.9935809 70.7674277,3.7008828 76.1370422,5.45420177 C81.5066567,7.20752073 80.1322624,26.3429105 73.0672467,48.194291 C69.9434187,57.8559756 66.8116425,66.2905156 60.8270741,75.3606769 C59.294095,77.684047 56.0499886,81.974918 51.0947547,88.2332899 Z" id="path-4"></path>
        <path d="M94.4467393,106.256042 C94.418099,106.280615 94.3855983,106.30024 94.3505625,106.314116 C94.1757234,106.383364 93.9781286,106.297064 93.909222,106.12136 L93.909245,106.121351 C93.5485095,105.201519 93.4841004,104.274219 93.7160178,103.33945 C93.8675528,102.728671 94.4830943,102.356988 95.0908682,102.509273 C95.6986421,102.661557 96.0684967,103.280141 95.9169617,103.89092 C95.6850428,104.825694 95.1949686,105.614068 94.4467393,106.256042 Z" id="path-5"></path>
        <path d="M66.0015052,5.07968657 C60.9548682,9.54983865 55.6282929,16.6717613 51.1621221,25.6177584 C48.4659103,31.0184258 46.6939669,37.0543492 44.6992556,43.6110114 C39.2094898,61.6559986 38.4076567,79.3695993 42.2937564,96.7518136 L42.2937134,96.7518233 C42.3070333,96.8114024 42.3249475,96.8692409 42.3470856,96.92493 C43.410546,101.93969 47.2254309,111.863605 57.8719969,117.757172 C60.8636628,119.413253 66.0455203,121.07384 73.704429,121.682132 C76.5211199,121.905841 81.5041285,121.905841 88.6534546,121.682132 L90.2938901,143.800134 C86.1529509,138.372044 82.9000816,134.541947 80.5352821,132.309842 C78.9361377,130.800429 76.7846697,127.243406 73.1896288,124.702679 C72.3950813,124.141147 65.8167577,121.39698 65.7160537,122.71167 C65.6650686,123.377281 67.1081644,126.770102 69.976286,129.908494 C70.8449669,130.859032 78.3825464,137.63915 83.6442681,143.800134 C87.4458812,148.251468 89.2693965,152.587569 90.2938901,153.177934 C90.3453639,153.207595 90.430435,153.268994 90.5434222,153.353608 C85.4842127,154.437902 80.2357406,155.008512 74.8546512,155.008512 C33.5135689,155.008512 0,121.329258 0,79.783793 C0,41.2485351 28.8330088,9.48088057 66.0015052,5.07968657 Z" id="path-6"></path>
    </defs>
    <g id="Page-1" stroke="none" stroke-width="1" fill="none" fill-rule="evenodd">
        <g id="LG-logo">
            <g id="logo-circle">
                <use fill="#D8D8D8" xlink:href="#path-2"></use>
                <use fill="url(#linearGradient-1)" xlink:href="#path-2"></use>
            </g>
            <path d="M42.1650378,97.0792043 C42.1428997,97.0235152 42.1249855,96.9656767 42.1116656,96.9060976 L42.1117087,96.9060879 C38.2256089,79.5238736 39.027442,61.8102729 44.5172078,43.7652857 C46.5119191,37.2086235 48.2838625,31.1727001 50.9800744,25.7720327 C59.5469799,8.61202798 71.2796601,-1.83647291 78.1298659,0.268199112 C80.4206147,0.972013708 83.3268496,2.12705515 84.9086152,5.10808155 C86.4474006,8.00810669 86.6952984,12.675454 86.5475643,17.5652755 C86.2501161,27.4104604 82.8544977,41.3468605 77.3348114,54.7810061 C72.0818096,67.5660788 61.4411366,87.3476079 51.0786628,96.7529009 C53.4034261,101.836124 55.2054654,105.231941 56.4847805,106.940354 C58.0089675,108.97577 64.833171,114.798946 73.5223812,116.412295 C83.8133433,118.323046 96.1490615,115.834588 97.2728299,115.564417 C104.704842,113.777642 110.709312,110.367185 111.478966,110.896984 C112.929131,111.895218 113.548272,113.515038 112.576129,114.399938 C111.603986,115.284839 108.603807,116.785168 105.778037,117.911446 C103.89419,118.662298 100.855034,119.606304 96.660569,120.743464 C98.5196209,137.829019 99.0666614,148.161181 98.3016905,151.739951 C97.8967505,153.634386 97.0722368,155.259383 95.2728111,155.720672 C93.4733854,156.181962 90.553861,153.586921 90.1118423,153.332208 C89.0873487,152.741843 87.2638334,148.405742 83.4622203,143.954409 C78.2004986,137.793424 70.6629191,131.013307 69.7942382,130.062768 C66.9261166,126.924376 65.4830208,123.531555 65.534006,122.865945 C65.6347099,121.551254 72.2130335,124.295422 73.007581,124.856953 C76.602622,127.39768 78.75409,130.954704 80.3532344,132.464116 C82.7180338,134.696221 85.9709031,138.526318 90.1118423,143.954409 L88.4714068,121.836406 C81.3220807,122.060115 76.3390721,122.060115 73.5223812,121.836406 C65.8634725,121.228114 60.681615,119.567528 57.6899491,117.911446 C47.0433831,112.01788 43.2284982,102.093964 42.1650378,97.0792043 Z M64.3318871,96.6655369 C64.7188592,95.7248746 66.899082,91.3610822 70.7953013,87.081379 C74.2823689,83.2510981 79.2010837,79.5548983 84.5102711,77.3556864 C90.1255867,75.0296678 101.011466,74.0210253 106.592705,76.9094368 C111.390606,79.3924536 111.410323,85.5962978 110.685968,86.6224859 C109.983906,87.6170902 105.11004,88.0284065 105.11004,82.6596069 C105.11004,81.7176506 99.7821181,80.2471749 94.8682084,80.6352586 C89.1987506,81.0830128 83.8265625,83.8068472 81.53657,85.5980703 C73.7001818,91.7276622 72.3401046,104.604039 73.5780034,106.801337 C76.5672326,112.107286 86.7396243,111.92251 86.7396243,110.873099 C86.7396243,108.936211 86.5329109,105.683955 87.9624108,102.532223 C88.8675849,100.536513 93.6558296,96.0231565 96.6830911,96.130816 C99.3122111,96.2243163 100.325751,99.9263517 100.546675,101.794595 C100.685396,102.967685 100.58252,110.998524 96.2528246,113.075475 C87.8543568,117.104212 71.5598146,115.240218 67.4311245,112.734468 C60.6957546,108.646694 63.1851861,99.4529691 64.3318871,96.6655369 Z" id="Combined-Shape" fill="#FFFFFF"></path>
            <g id="inner-oval">
                <use fill="#D8D8D8" xlink:href="#path-4"></use>
                <use fill="url(#linearGradient-3)" xlink:href="#path-4"></use>
                <use fill="#4FC2AA" xlink:href="#path-4"></use>
            </g>
            <g id="Oval" opacity="0.801403986">
                <use fill="#D8D8D8" xlink:href="#path-5"></use>
                <use fill="#5C5C5C" xlink:href="#path-5"></use>
            </g>
            <g id="Combined-Shape">
                <use fill="#D8D8D8" xlink:href="#path-6"></use>
                <use fill="url(#linearGradient-1)" xlink:href="#path-6"></use>
                <use fill="#4FC2AA" xlink:href="#path-6"></use>
            </g>
        </g>
    </g>
</svg>